<svg width="64" height="64" viewBox="0 0 64 64" fill="none" xmlns="http://www.w3.org/2000/svg">
<path d="M50.875 39.84V49.84C50.875 51.631 42.424 53.082 32 53.082C21.576 53.082 13.125 51.631 13.125 49.84V39.884" fill="white"/>
<path d="M50.875 39.84V49.84C50.875 51.631 42.424 53.082 32 53.082C21.576 53.082 13.125 51.631 13.125 49.84V39.884" stroke="#298EEA" stroke-width="2" stroke-miterlimit="10"/>
<path d="M50.875 30.21V40.21C50.875 42.001 42.424 43.452 32 43.452C21.576 43.452 13.125 42 13.125 40.21V30.254" fill="white"/>
<path d="M50.875 30.21V40.21C50.875 42.001 42.424 43.452 32 43.452C21.576 43.452 13.125 42 13.125 40.21V30.254" stroke="#298EEA" stroke-width="2" stroke-miterlimit="10"/>
<path d="M50.875 20.162V30.162C50.875 31.953 42.424 33.404 32 33.404C21.576 33.404 13.125 31.952 13.125 30.162V20.206" fill="white"/>
<path d="M50.875 20.162V30.162C50.875 31.953 42.424 33.404 32 33.404C21.576 33.404 13.125 31.952 13.125 30.162V20.206" stroke="#298EEA" stroke-width="2" stroke-miterlimit="10"/>
<path d="M50.875 10.1599V20.1599C50.875 21.9499 42.424 23.3999 32 23.3999C21.576 23.3999 13.125 21.9499 13.125 20.1599V10.1999" fill="white"/>
<path d="M50.875 10.1599V20.1599C50.875 21.9499 42.424 23.3999 32 23.3999C21.576 23.3999 13.125 21.9499 13.125 20.1599V10.1999" stroke="#298EEA" stroke-width="2" stroke-miterlimit="10"/>
<path d="M32 13.402C42.4244 13.402 50.875 11.9505 50.875 10.16C50.875 8.36946 42.4244 6.91797 32 6.91797C21.5756 6.91797 13.125 8.36946 13.125 10.16C13.125 11.9505 21.5756 13.402 32 13.402Z" fill="white" stroke="#298EEA" stroke-width="2" stroke-miterlimit="10"/>
<path d="M32 58.968C29.2374 58.968 26.5368 58.1488 24.2398 56.614C21.9428 55.0791 20.1524 52.8976 19.0952 50.3453C18.038 47.793 17.7614 44.9845 18.3004 42.275C18.8393 39.5654 20.1697 37.0766 22.1231 35.1231C24.0766 33.1697 26.5654 31.8393 29.275 31.3004C31.9845 30.7614 34.793 31.038 37.3453 32.0952C39.8976 33.1524 42.0791 34.9428 43.614 37.2398C45.1488 39.5368 45.968 42.2374 45.968 45C45.964 48.7033 44.4911 52.2538 41.8725 54.8725C39.2538 57.4911 35.7033 58.964 32 58.968V58.968Z" fill="#D4E8FB"/>
<path d="M32 32.032C34.5648 32.032 37.072 32.7925 39.2046 34.2175C41.3372 35.6424 42.9993 37.6678 43.9809 40.0373C44.9624 42.4069 45.2192 45.0144 44.7188 47.5299C44.2184 50.0455 42.9834 52.3561 41.1698 54.1697C39.3561 55.9834 37.0455 57.2184 34.5299 57.7188C32.0144 58.2192 29.4069 57.9624 27.0373 56.9809C24.6678 55.9993 22.6424 54.3372 21.2175 52.2046C19.7925 50.072 19.032 47.5648 19.032 45C19.036 41.5619 20.4035 38.2657 22.8346 35.8346C25.2657 33.4035 28.5619 32.036 32 32.032ZM32 30.032C29.0396 30.032 26.1457 30.9098 23.6842 32.5545C21.2227 34.1992 19.3043 36.5369 18.1714 39.272C17.0385 42.007 16.7421 45.0166 17.3196 47.9201C17.8971 50.8236 19.3227 53.4906 21.416 55.584C23.5093 57.6773 26.1764 59.1028 29.0799 59.6804C31.9834 60.2579 34.9929 59.9615 37.728 58.8286C40.463 57.6957 42.8007 55.7772 44.4454 53.3158C46.0901 50.8543 46.968 47.9604 46.968 45C46.968 41.0302 45.391 37.2231 42.584 34.416C39.7769 31.609 35.9697 30.032 32 30.032V30.032Z" fill="#298EEA"/>
<path d="M32 35.125C34.619 35.125 37.1308 36.1654 38.9827 38.0173C40.8346 39.8692 41.875 42.381 41.875 45" stroke="#298EEA" stroke-width="2" stroke-miterlimit="10" stroke-linecap="round"/>
<path d="M32 39.84C33.3685 39.84 34.681 40.3836 35.6487 41.3513C36.6164 42.319 37.16 43.6314 37.16 45" stroke="#298EEA" stroke-width="2" stroke-miterlimit="10" stroke-linecap="round"/>
<path d="M31 45V46.542C31 47.7243 31.4697 48.8582 32.3057 49.6943C33.1418 50.5303 34.2757 51 35.458 51H36V58" stroke="#298EEA" stroke-width="2" stroke-miterlimit="10" stroke-linecap="round"/>
<path d="M31 46.9719C32.1134 46.9719 33.016 46.0694 33.016 44.9559C33.016 43.8425 32.1134 42.9399 31 42.9399C29.8866 42.9399 28.984 43.8425 28.984 44.9559C28.984 46.0694 29.8866 46.9719 31 46.9719Z" fill="#298EEA"/>
</svg>
