<svg width="64" height="64" viewBox="0 0 64 64" fill="none" xmlns="http://www.w3.org/2000/svg">
<path d="M50.875 41.84V51.84C50.875 53.631 42.424 55.082 32 55.082C21.576 55.082 13.125 53.631 13.125 51.84V41.884" fill="white"/>
<path d="M50.875 41.84V51.84C50.875 53.631 42.424 55.082 32 55.082C21.576 55.082 13.125 53.631 13.125 51.84V41.884" stroke="#298EEA" stroke-width="2" stroke-miterlimit="10"/>
<path d="M50.875 32.21V42.21C50.875 44.001 42.424 45.452 32 45.452C21.576 45.452 13.125 44 13.125 42.21V32.254" fill="white"/>
<path d="M50.875 32.21V42.21C50.875 44.001 42.424 45.452 32 45.452C21.576 45.452 13.125 44 13.125 42.21V32.254" stroke="#298EEA" stroke-width="2" stroke-miterlimit="10"/>
<path d="M50.875 22.162V32.162C50.875 33.953 42.424 35.404 32 35.404C21.576 35.404 13.125 33.952 13.125 32.162V22.206" fill="white"/>
<path d="M50.875 22.162V32.162C50.875 33.953 42.424 35.404 32 35.404C21.576 35.404 13.125 33.952 13.125 32.162V22.206" stroke="#298EEA" stroke-width="2" stroke-miterlimit="10"/>
<path d="M50.875 12.1599V22.1599C50.875 23.9499 42.424 25.3999 32 25.3999C21.576 25.3999 13.125 23.9499 13.125 22.1599V12.1999" fill="white"/>
<path d="M50.875 12.1599V22.1599C50.875 23.9499 42.424 25.3999 32 25.3999C21.576 25.3999 13.125 23.9499 13.125 22.1599V12.1999" stroke="#298EEA" stroke-width="2" stroke-miterlimit="10"/>
<path d="M32 15.402C42.4244 15.402 50.875 13.9505 50.875 12.16C50.875 10.3695 42.4244 8.91797 32 8.91797C21.5756 8.91797 13.125 10.3695 13.125 12.16C13.125 13.9505 21.5756 15.402 32 15.402Z" fill="white" stroke="#298EEA" stroke-width="2" stroke-miterlimit="10"/>
<path d="M32 60.968C29.2374 60.968 26.5368 60.1488 24.2398 58.614C21.9428 57.0791 20.1524 54.8976 19.0952 52.3453C18.038 49.793 17.7614 46.9845 18.3004 44.275C18.8393 41.5654 20.1697 39.0766 22.1231 37.1231C24.0766 35.1697 26.5654 33.8393 29.275 33.3004C31.9845 32.7614 34.793 33.038 37.3453 34.0952C39.8976 35.1524 42.0791 36.9428 43.614 39.2398C45.1488 41.5368 45.968 44.2374 45.968 47C45.964 50.7033 44.4911 54.2538 41.8725 56.8725C39.2538 59.4911 35.7033 60.964 32 60.968V60.968Z" fill="#D4E8FB"/>
<path d="M32 34.032C34.5648 34.032 37.072 34.7925 39.2046 36.2175C41.3372 37.6424 42.9993 39.6677 43.9809 42.0373C44.9624 44.4069 45.2192 47.0144 44.7188 49.5299C44.2184 52.0455 42.9834 54.3561 41.1698 56.1697C39.3561 57.9833 37.0455 59.2184 34.5299 59.7188C32.0144 60.2192 29.4069 59.9624 27.0373 58.9809C24.6678 57.9993 22.6424 56.3372 21.2175 54.2046C19.7925 52.072 19.032 49.5648 19.032 47C19.036 43.5619 20.4035 40.2657 22.8346 37.8346C25.2657 35.4035 28.5619 34.036 32 34.032V34.032ZM32 32.032C29.0396 32.032 26.1457 32.9098 23.6842 34.5545C21.2227 36.1992 19.3043 38.5369 18.1714 41.272C17.0385 44.007 16.7421 47.0166 17.3196 49.9201C17.8971 52.8236 19.3227 55.4906 21.416 57.584C23.5093 59.6773 26.1764 61.1028 29.0799 61.6804C31.9834 62.2579 34.9929 61.9615 37.728 60.8286C40.463 59.6957 42.8007 57.7772 44.4454 55.3158C46.0901 52.8543 46.968 49.9604 46.968 47C46.968 45.0344 46.5808 43.088 45.8286 41.272C45.0764 39.456 43.9739 37.8059 42.584 36.416C41.1941 35.0261 39.544 33.9236 37.728 33.1714C35.912 32.4191 33.9656 32.032 32 32.032V32.032Z" fill="#298EEA"/>
<path d="M36.963 41.351C33.79 41.351 31.187 45 31.063 47C30.913 50 29.163 50.764 27.032 50.764C26.3264 50.7656 25.6328 50.5823 25.0201 50.2324C24.4074 49.8825 23.897 49.3783 23.5398 48.7698C23.1826 48.1614 22.9911 47.4699 22.9842 46.7644C22.9773 46.0589 23.1554 45.3639 23.5006 44.7486C23.8459 44.1333 24.3463 43.6191 24.952 43.2574C25.5578 42.8956 26.2477 42.6988 26.9532 42.6866C27.6586 42.6744 28.355 42.8473 28.9729 43.1879C29.5908 43.5285 30.1087 44.025 30.475 44.628C30.6872 43.9672 31.002 43.3439 31.408 42.781C30.8583 42.164 30.1841 41.6704 29.4298 41.3327C28.6756 40.9951 27.8584 40.821 27.032 40.822C25.4629 40.822 23.9582 41.4453 22.8487 42.5548C21.7393 43.6642 21.116 45.169 21.116 46.738C21.116 48.307 21.7393 49.8118 22.8487 50.9213C23.9582 52.0307 25.4629 52.654 27.032 52.654C28.5481 52.6318 29.9996 52.0363 31.0945 50.9874C32.1895 49.9384 32.8467 48.5138 32.934 47V47C33.0249 45.9871 33.4866 45.0434 34.2305 44.3499C34.9744 43.6563 35.9481 43.2618 36.965 43.242C37.6708 43.2404 38.3647 43.4236 38.9777 43.7735C39.5907 44.1234 40.1014 44.6278 40.4589 45.2364C40.8163 45.845 41.0082 46.5366 41.0152 47.2424C41.0223 47.9482 40.8444 48.6436 40.4993 49.2592C40.1541 49.8749 39.6537 50.3894 39.0478 50.7516C38.442 51.1137 37.7519 51.3109 37.0461 51.3234C36.3404 51.3359 35.6437 51.1634 35.0254 50.8229C34.4071 50.4825 33.8888 49.9861 33.522 49.383C33.3098 50.0438 32.9949 50.6671 32.589 51.23C33.1387 51.8471 33.8128 52.3407 34.5671 52.6783C35.3214 53.016 36.1386 53.19 36.965 53.189C38.5348 53.189 40.0403 52.5654 41.1503 51.4554C42.2604 50.3454 42.884 48.8398 42.884 47.27C42.884 45.7002 42.2604 44.1947 41.1503 43.0847C40.0403 41.9746 38.5348 41.351 36.965 41.351H36.963Z" fill="#298EEA"/>
</svg>
