<svg width="64" height="64" viewBox="0 0 64 64" fill="none" xmlns="http://www.w3.org/2000/svg">
<path d="M51.25 41.13V51.13C51.25 52.921 42.799 54.372 32.375 54.372C21.951 54.372 13.5 52.921 13.5 51.13V41.174" fill="white"/>
<path d="M51.25 41.13V51.13C51.25 52.921 42.799 54.372 32.375 54.372C21.951 54.372 13.5 52.921 13.5 51.13V41.174" stroke="#298EEA" stroke-width="2" stroke-miterlimit="10"/>
<path d="M51.25 31.5V41.5C51.25 43.291 42.799 44.742 32.375 44.742C21.951 44.742 13.5 43.291 13.5 41.5V31.544" fill="white"/>
<path d="M51.25 31.5V41.5C51.25 43.291 42.799 44.742 32.375 44.742C21.951 44.742 13.5 43.291 13.5 41.5V31.544" stroke="#298EEA" stroke-width="2" stroke-miterlimit="10"/>
<path d="M51.25 21.452V31.452C51.25 33.243 42.799 34.694 32.375 34.694C21.951 34.694 13.5 33.243 13.5 31.452V21.5" fill="white"/>
<path d="M51.25 21.452V31.452C51.25 33.243 42.799 34.694 32.375 34.694C21.951 34.694 13.5 33.243 13.5 31.452V21.5" stroke="#298EEA" stroke-width="2" stroke-miterlimit="10"/>
<path d="M51.25 11.45V21.45C51.25 23.241 42.799 24.692 32.375 24.692C21.951 24.692 13.5 23.241 13.5 21.45V11.494" fill="white"/>
<path d="M51.25 11.45V21.45C51.25 23.241 42.799 24.692 32.375 24.692C21.951 24.692 13.5 23.241 13.5 21.45V11.494" stroke="#298EEA" stroke-width="2" stroke-miterlimit="10"/>
<path d="M32.375 14.692C42.7994 14.692 51.25 13.2405 51.25 11.45C51.25 9.6595 42.7994 8.20801 32.375 8.20801C21.9506 8.20801 13.5 9.6595 13.5 11.45C13.5 13.2405 21.9506 14.692 32.375 14.692Z" fill="white" stroke="#298EEA" stroke-width="2" stroke-miterlimit="10"/>
<path d="M51.25 16.869C51.25 18.66 42.799 20.111 32.375 20.111" stroke="#298EEA" stroke-width="2" stroke-miterlimit="10" stroke-linecap="round"/>
<path d="M17.219 19.51C17.7713 19.51 18.219 19.0623 18.219 18.51C18.219 17.9577 17.7713 17.51 17.219 17.51C16.6667 17.51 16.219 17.9577 16.219 18.51C16.219 19.0623 16.6667 19.51 17.219 19.51Z" fill="#C9C9C9"/>
<path d="M51.25 26.452C51.25 28.243 42.799 29.694 32.375 29.694" stroke="#298EEA" stroke-width="2" stroke-miterlimit="10" stroke-linecap="round"/>
<path d="M17.219 29.094C17.7713 29.094 18.219 28.6463 18.219 28.094C18.219 27.5417 17.7713 27.094 17.219 27.094C16.6667 27.094 16.219 27.5417 16.219 28.094C16.219 28.6463 16.6667 29.094 17.219 29.094Z" fill="#C9C9C9"/>
<path d="M51.25 36.035C51.25 37.826 42.799 39.277 32.375 39.277" stroke="#298EEA" stroke-width="2" stroke-miterlimit="10" stroke-linecap="round"/>
<path d="M17.219 38.677C17.7713 38.677 18.219 38.2293 18.219 37.677C18.219 37.1247 17.7713 36.677 17.219 36.677C16.6667 36.677 16.219 37.1247 16.219 37.677C16.219 38.2293 16.6667 38.677 17.219 38.677Z" fill="#C9C9C9"/>
<path d="M51.25 45.619C51.25 47.41 42.799 48.861 32.375 48.861" stroke="#298EEA" stroke-width="2" stroke-miterlimit="10" stroke-linecap="round"/>
<path d="M17.219 48.26C17.7713 48.26 18.219 47.8123 18.219 47.26C18.219 46.7077 17.7713 46.26 17.219 46.26C16.6667 46.26 16.219 46.7077 16.219 47.26C16.219 47.8123 16.6667 48.26 17.219 48.26Z" fill="#C9C9C9"/>
</svg>
