<svg width="64" height="64" viewBox="0 0 64 64" fill="none" xmlns="http://www.w3.org/2000/svg">
<path d="M6.216 11.813H53.252C53.3093 11.813 53.3642 11.8357 53.4047 11.8763C53.4452 11.9168 53.468 11.9717 53.468 12.029V47.1C53.468 47.1575 53.4451 47.2127 53.4044 47.2534C53.3638 47.2941 53.3086 47.317 53.251 47.317H6.216C6.18755 47.317 6.15938 47.3114 6.13311 47.3005C6.10684 47.2895 6.08298 47.2735 6.06291 47.2534C6.04284 47.2332 6.02695 47.2093 6.01616 47.183C6.00536 47.1566 5.99987 47.1284 6 47.1V12.03C6 11.9727 6.02276 11.9178 6.06327 11.8773C6.10378 11.8367 6.15872 11.814 6.216 11.814V11.813Z" fill="#D4E8FB"/>
<path d="M52.469 12.814V46.321H7V12.814H52.469ZM53.253 10.814H6.216C5.89382 10.815 5.58514 10.9435 5.35732 11.1713C5.12951 11.3991 5.00105 11.7078 5 12.03V47.1C5.00105 47.4221 5.12951 47.7308 5.35732 47.9586C5.58514 48.1865 5.89382 48.3149 6.216 48.316H53.252C53.5744 48.3152 53.8833 48.1868 54.1113 47.959C54.3394 47.7312 54.4679 47.4223 54.469 47.1V12.03C54.4679 11.7078 54.3395 11.3991 54.1117 11.1713C53.8839 10.9435 53.5752 10.815 53.253 10.814V10.814Z" fill="#298EEA"/>
<path d="M57.783 16.679H10.748C10.6282 16.679 10.531 16.7761 10.531 16.896V51.969C10.531 52.0888 10.6282 52.186 10.748 52.186H57.783C57.9029 52.186 58 52.0888 58 51.969V16.896C58 16.7761 57.9029 16.679 57.783 16.679Z" fill="white"/>
<path d="M57 17.679V51.186H11.531V17.679H57ZM57.784 15.679H10.748C10.4248 15.6797 10.1151 15.8088 9.88692 16.0377C9.65875 16.2666 9.53074 16.5767 9.53101 16.9V51.97C9.53206 52.2921 9.66051 52.6008 9.88833 52.8286C10.1161 53.0564 10.4248 53.1849 10.747 53.186H57.784C58.1062 53.1849 58.4149 53.0564 58.6427 52.8286C58.8705 52.6008 58.999 52.2921 59 51.97V16.9C58.999 16.5778 58.8705 16.2691 58.6427 16.0413C58.4149 15.8135 58.1062 15.685 57.784 15.684V15.679Z" fill="#298EEA"/>
<path d="M10 24.5H59" stroke="#298EEA" stroke-miterlimit="10"/>
<path d="M53.987 21.964C54.7425 21.964 55.355 21.3516 55.355 20.596C55.355 19.8405 54.7425 19.228 53.987 19.228C53.2315 19.228 52.619 19.8405 52.619 20.596C52.619 21.3516 53.2315 21.964 53.987 21.964Z" fill="#C9C9C9"/>
<path d="M48.513 21.964C49.2685 21.964 49.881 21.3516 49.881 20.596C49.881 19.8405 49.2685 19.228 48.513 19.228C47.7575 19.228 47.145 19.8405 47.145 20.596C47.145 21.3516 47.7575 21.964 48.513 21.964Z" fill="#C9C9C9"/>
<path d="M43.039 21.964C43.7945 21.964 44.407 21.3516 44.407 20.596C44.407 19.8405 43.7945 19.228 43.039 19.228C42.2835 19.228 41.671 19.8405 41.671 20.596C41.671 21.3516 42.2835 21.964 43.039 21.964Z" fill="#C9C9C9"/>
<path d="M27.1 44.354C27.0068 44.3539 26.9149 44.3324 26.8313 44.2912C26.7477 44.2499 26.6747 44.19 26.618 44.116L21.63 37.634L26.9 30.793C26.9983 30.6651 27.1433 30.5814 27.3033 30.5604C27.4633 30.5394 27.625 30.5828 27.753 30.681C27.881 30.7793 27.9647 30.9244 27.9857 31.0843C28.0067 31.2443 27.9633 31.4061 27.865 31.534L23.17 37.634L27.589 43.375C27.6583 43.465 27.701 43.5726 27.7123 43.6857C27.7236 43.7987 27.703 43.9127 27.6528 44.0146C27.6026 44.1165 27.5249 44.2023 27.4284 44.2623C27.332 44.3223 27.2206 44.3541 27.107 44.354H27.1Z" fill="#298EEA"/>
<path d="M40.761 44.354C40.8542 44.354 40.9462 44.3325 41.0297 44.2912C41.1133 44.2499 41.1863 44.19 41.243 44.116L46.232 37.633L40.967 30.792C40.8687 30.6641 40.7237 30.5804 40.5637 30.5594C40.4037 30.5384 40.242 30.5818 40.114 30.68C39.986 30.7783 39.9023 30.9234 39.8813 31.0833C39.8603 31.2433 39.9037 31.4051 40.002 31.533L44.697 37.633L40.278 43.374C40.2087 43.464 40.166 43.5717 40.1547 43.6847C40.1434 43.7977 40.164 43.9117 40.2142 44.0136C40.2644 44.1155 40.3421 44.2013 40.4386 44.2613C40.5351 44.3213 40.6464 44.3531 40.76 44.353L40.761 44.354Z" fill="#298EEA"/>
<path d="M30.748 45.33C30.6633 45.3302 30.5794 45.3125 30.502 45.2779C30.3549 45.2129 30.2396 45.0921 30.1815 44.9421C30.1233 44.7921 30.1271 44.6252 30.192 44.4779L36.68 29.8279C36.7458 29.6814 36.867 29.5669 37.017 29.5094C37.167 29.4519 37.3337 29.4561 37.4806 29.5211C37.6275 29.5861 37.7427 29.7066 37.8011 29.8563C37.8594 30.006 37.8562 30.1727 37.792 30.3199L31.3 44.9669C31.2527 45.0741 31.1754 45.1654 31.0775 45.2298C30.9796 45.2942 30.8652 45.329 30.748 45.33V45.33Z" fill="#298EEA"/>
</svg>
