<svg width="64" height="64" viewBox="0 0 64 64" fill="none" xmlns="http://www.w3.org/2000/svg">
<path d="M58.623 11.771H5.377C5.16879 11.771 5 11.9398 5 12.148V51.853C5 52.0612 5.16879 52.23 5.377 52.23H58.623C58.8312 52.23 59 52.0612 59 51.853V12.148C59 11.9398 58.8312 11.771 58.623 11.771Z" fill="white"/>
<path d="M58 12.77V51.23H6V12.77H58ZM58.623 10.77H5.377C5.01195 10.7711 4.66217 10.9166 4.40413 11.1749C4.14609 11.4331 4.00079 11.783 4 12.148V51.848C3.99973 52.2138 4.14457 52.5647 4.40272 52.8238C4.66087 53.0829 5.01126 53.229 5.377 53.23H58.623C58.9881 53.229 59.3378 53.0834 59.5959 52.8252C59.8539 52.567 59.9992 52.2171 60 51.852V12.152C59.9989 11.7871 59.8535 11.4375 59.5955 11.1795C59.3375 10.9215 58.9879 10.7761 58.623 10.775V10.77Z" fill="#298EEA"/>
<path d="M5 20.5H59" stroke="#298EEA" stroke-miterlimit="10"/>
<path d="M17.5 21V53" stroke="#298EEA" stroke-miterlimit="10"/>
<path d="M14.881 23.91H7.99597V25.287H14.881V23.91Z" fill="#D4E8FB"/>
<path d="M14.881 27.6901H7.99597V29.0671H14.881V27.6901Z" fill="#D4E8FB"/>
<path d="M14.881 31.469H7.99597V32.846H14.881V31.469Z" fill="#D4E8FB"/>
<path d="M14.881 35.249H7.99597V36.626H14.881V35.249Z" fill="#D4E8FB"/>
<path d="M14.881 39.0291H7.99597V40.4061H14.881V39.0291Z" fill="#D4E8FB"/>
<path d="M14.881 42.808H7.99597V44.185H14.881V42.808Z" fill="#D4E8FB"/>
<path d="M14.881 46.588H7.99597V47.965H14.881V46.588Z" fill="#D4E8FB"/>
<path d="M36.228 31.808L35.489 34.334L35.436 34.516C35.3477 34.7519 35.1922 34.9567 34.9887 35.1051C34.7851 35.2535 34.5426 35.339 34.291 35.351H32.1C31.5717 35.351 31.065 35.5609 30.6914 35.9345C30.3179 36.308 30.108 36.8147 30.108 37.343C30.108 37.8713 30.3179 38.378 30.6914 38.7516C31.065 39.1251 31.5717 39.335 32.1 39.335H33.471C33.6074 39.359 33.731 39.4303 33.8201 39.5364C33.9091 39.6424 33.958 39.7765 33.958 39.915C33.9581 39.9646 33.952 40.0139 33.94 40.062L33.193 42.878H32.093C30.6249 42.878 29.2169 42.2948 28.1788 41.2567C27.1407 40.2186 26.5575 38.8106 26.5575 37.3425C26.5575 35.8744 27.1407 34.4664 28.1788 33.4283C29.2169 32.3902 30.6249 31.807 32.093 31.807L36.228 31.808Z" fill="#D4E8FB"/>
<path d="M48.225 33.759C48.226 35.2257 47.6446 36.6327 46.6086 37.6708C45.5725 38.709 44.1666 39.2932 42.7 39.295H39.211L39.95 36.769L40 36.586C40.0883 36.3501 40.2438 36.1453 40.4473 35.9969C40.6508 35.8485 40.8934 35.763 41.145 35.751H42.69C43.2183 35.751 43.725 35.5412 44.0985 35.1676C44.4721 34.794 44.682 34.2873 44.682 33.759C44.682 33.2307 44.4721 32.724 44.0985 32.3505C43.725 31.9769 43.2183 31.767 42.69 31.767H40.551L37.874 41.9L37.833 42.055C37.7623 42.2648 37.6364 42.4517 37.4685 42.596C37.3007 42.7403 37.097 42.8367 36.879 42.875C36.8087 42.8878 36.7374 42.8942 36.666 42.894H33.985L37.472 29.294L37.522 29.101C37.6099 28.8449 37.7756 28.6226 37.9959 28.4652C38.2162 28.3078 38.4802 28.2231 38.751 28.223H42.7C44.1666 28.2249 45.5725 28.8091 46.6086 29.8472C47.6446 30.8853 48.226 32.2924 48.225 33.759V33.759Z" fill="#D4E8FB"/>
</svg>
