<svg width="64" height="64" viewBox="0 0 64 64" fill="none" xmlns="http://www.w3.org/2000/svg">
<path d="M32 6.69995L9.92297 14.537C9.92297 14.537 10.262 29.437 13.99 39.337C19.07 52.832 32 57.2999 32 57.2999C32 57.2999 44.93 52.8299 50.011 39.3359C53.74 29.4359 54.078 14.536 54.078 14.536L32 6.69995Z" stroke="#288EEA" stroke-width="2" stroke-miterlimit="10"/>
<path d="M31.608 9.8999V32.2769H15.155C14.0295 27.0672 13.3752 21.7669 13.2 16.4399L31.608 9.8999Z" fill="#D4E8FB"/>
<path d="M33.316 33.277H33.158V33.435H33.316V33.277Z" fill="#288EEA"/>
<path d="M48.5729 33.434C48.2066 35.0242 47.7389 36.5894 47.1729 38.12C43.2409 48.568 33.6589 52.527 32.3159 53.038V33.438L48.5729 33.434Z" fill="#D4E8FB"/>
<path d="M33.316 33.277H33.158V33.435H33.316V33.277Z" fill="#272525"/>
<path d="M33.316 33.277H33.158V33.435H33.316V33.277Z" fill="#272525"/>
<path d="M32 45.382C39.801 45.382 46.125 39.058 46.125 31.257C46.125 23.4559 39.801 17.132 32 17.132C24.199 17.132 17.875 23.4559 17.875 31.257C17.875 39.058 24.199 45.382 32 45.382Z" fill="#D4E8FB" stroke="#298EEA" stroke-miterlimit="10" stroke-linecap="round"/>
<path d="M31.9999 20.51C34.1255 20.51 36.2033 21.1403 37.9706 22.3212C39.738 23.5021 41.1154 25.1806 41.9289 27.1443C42.7423 29.1081 42.9551 31.2689 42.5404 33.3536C42.1258 35.4384 41.1022 37.3533 39.5992 38.8563C38.0962 40.3593 36.1813 41.3828 34.0966 41.7975C32.0118 42.2122 29.851 41.9994 27.8872 41.1859C25.9235 40.3725 24.245 38.9951 23.0641 37.2277C21.8832 35.4604 21.2529 33.3826 21.2529 31.257" fill="white"/>
<path d="M31.9999 20.51C34.1255 20.51 36.2033 21.1403 37.9706 22.3212C39.738 23.5021 41.1154 25.1806 41.9289 27.1443C42.7423 29.1081 42.9551 31.2689 42.5404 33.3536C42.1258 35.4384 41.1022 37.3533 39.5992 38.8563C38.0962 40.3593 36.1813 41.3828 34.0966 41.7975C32.0118 42.2122 29.851 41.9994 27.8872 41.1859C25.9235 40.3725 24.245 38.9951 23.0641 37.2277C21.8832 35.4604 21.2529 33.3826 21.2529 31.257" stroke="#288EEA" stroke-width="0.75" stroke-miterlimit="10"/>
<path d="M21.2529 31.257C21.2529 28.4067 22.3852 25.6732 24.4007 23.6577C26.4161 21.6423 29.1496 20.51 31.9999 20.51" fill="white"/>
<path d="M21.2529 31.257C21.2529 28.4067 22.3852 25.6732 24.4007 23.6577C26.4161 21.6423 29.1496 20.51 31.9999 20.51" stroke="#288EEA" stroke-width="0.75" stroke-miterlimit="10"/>
<path d="M32 28.907V41.833" stroke="#298EEA" stroke-width="2" stroke-miterlimit="10"/>
<path d="M26.8779 33.0649L32.0489 27.8929L37.1219 32.9659" stroke="#298EEA" stroke-width="2" stroke-linecap="round" stroke-linejoin="round"/>
</svg>
