<svg width="109" height="109" viewBox="0 0 109 109" fill="none" xmlns="http://www.w3.org/2000/svg">
<path d="M109 0H48.2212L0 47.7189V109L109 0Z" fill="#00B359"/>
<path d="M109 9V0L100 9H109Z" fill="#007732"/>
<path d="M9 109V100L0 109H9Z" fill="#007732"/>
<path d="M18.3168 67.5655L12.2843 61.533L14.3973 59.4199C15.1293 58.688 15.8253 58.2737 16.4855 58.177C17.1429 58.0775 17.7423 58.2985 18.2836 58.8399C18.5792 59.1354 18.7643 59.4724 18.8388 59.8508C18.9107 60.2265 18.8637 60.6021 18.698 60.9778C19.0847 60.7458 19.4838 60.6588 19.8954 60.7168C20.3097 60.772 20.6867 60.9695 21.0264 61.3092C21.6065 61.8893 21.8606 62.5135 21.7888 63.182C21.717 63.8504 21.3413 64.5299 20.6618 65.2204L18.3168 67.5655ZM16.933 63.6957L18.5612 65.324L19.626 64.2592C19.9188 63.9664 20.0777 63.6695 20.1025 63.3684C20.1274 63.0618 20.0169 62.7856 19.7711 62.5398C19.2186 61.9874 18.6524 61.9929 18.0723 62.5564L16.933 63.6957ZM16.0546 62.8174L16.9744 61.8976C17.5903 61.2595 17.6539 60.6961 17.165 60.2072C16.8915 59.9337 16.6153 59.8177 16.3363 59.8591C16.0574 59.895 15.7466 60.0842 15.4041 60.4267L14.534 61.2968L16.0546 62.8174ZM24.7512 55.9024L22.3647 58.2889L23.9806 59.9047L26.7814 57.1039L27.7799 58.1024L23.7361 62.1462L17.7036 56.1137L21.7391 52.0782L22.7459 53.085L19.9534 55.8775L21.391 57.3152L23.7775 54.9287L24.7512 55.9024ZM30.0545 52.6624C29.8197 52.4276 29.5573 52.3309 29.2673 52.3724C28.9745 52.411 28.5436 52.5768 27.9746 52.8695C27.4028 53.1596 26.9236 53.3626 26.5369 53.4786C25.4818 53.7935 24.6407 53.6374 24.0137 53.0104C23.6878 52.6845 23.4889 52.3033 23.4171 51.8669C23.3453 51.4249 23.4088 50.9609 23.6077 50.4748C23.8093 49.9859 24.1242 49.5274 24.5523 49.0992C24.9832 48.6683 25.4459 48.3631 25.9403 48.1836C26.4319 48.0013 26.9126 47.9598 27.3821 48.0593C27.8544 48.156 28.2715 48.3852 28.6334 48.7471L27.3904 49.99C27.1142 49.7138 26.8131 49.5867 26.4872 49.6088C26.1585 49.6282 25.8367 49.7953 25.5218 50.1102C25.218 50.414 25.0467 50.7151 25.0081 51.0134C24.9666 51.3089 25.0509 51.5617 25.2608 51.7716C25.4569 51.9677 25.7193 52.034 26.048 51.9705C26.3795 51.9042 26.7952 51.7371 27.2951 51.4691C28.2149 50.9747 28.9938 50.7234 29.6319 50.7151C30.2699 50.7068 30.8237 50.9374 31.2933 51.407C31.8153 51.929 32.028 52.5367 31.9314 53.23C31.8319 53.9205 31.448 54.6 30.7795 55.2685C30.3155 55.7325 29.8087 56.0709 29.259 56.2835C28.7066 56.4935 28.1818 56.5515 27.6846 56.4576C27.1902 56.3609 26.7482 56.1178 26.3587 55.7284L27.6059 54.4812C28.2715 55.1469 29.0021 55.082 29.7976 54.2865C30.0932 53.991 30.2644 53.7009 30.3114 53.4164C30.3556 53.1292 30.2699 52.8778 30.0545 52.6624ZM33.2448 42.5861L31.3969 44.434L36.4226 49.4597L35.1796 50.7026L30.1539 45.6769L28.3309 47.5L27.3241 46.4932L32.238 41.5793L33.2448 42.5861ZM42.3929 40.3239C42.1582 40.0891 41.8958 39.9925 41.6057 40.0339C41.313 40.0726 40.8821 40.2383 40.3131 40.5311C39.7413 40.8211 39.2621 41.0241 38.8754 41.1401C37.8202 41.455 36.9792 41.299 36.3522 40.672C36.0262 40.346 35.8274 39.9648 35.7555 39.5284C35.6837 39.0865 35.7472 38.6224 35.9461 38.1363C36.1478 37.6474 36.4626 37.1889 36.8908 36.7608C37.3217 36.3299 37.7843 36.0247 38.2787 35.8451C38.7704 35.6628 39.251 35.6214 39.7206 35.7208C40.1929 35.8175 40.61 36.0468 40.9718 36.4086L39.7289 37.6516C39.4527 37.3753 39.1516 37.2483 38.8256 37.2704C38.497 37.2897 38.1752 37.4568 37.8603 37.7717C37.5564 38.0755 37.3852 38.3766 37.3465 38.6749C37.3051 38.9705 37.3893 39.2232 37.5993 39.4331C37.7954 39.6292 38.0578 39.6955 38.3865 39.632C38.7179 39.5657 39.1336 39.3986 39.6336 39.1307C40.5534 38.6363 41.3323 38.3849 41.9703 38.3766C42.6084 38.3683 43.1622 38.599 43.6318 39.0685C44.1538 39.5906 44.3665 40.1982 44.2698 40.8915C44.1704 41.5821 43.7864 42.2616 43.118 42.93C42.654 43.394 42.1471 43.7324 41.5975 43.9451C41.045 44.155 40.5202 44.213 40.023 44.1191C39.5286 44.0224 39.0867 43.7794 38.6972 43.3899L39.9443 42.1428C40.61 42.8085 41.3406 42.7436 42.1361 41.9481C42.4316 41.6525 42.6029 41.3625 42.6498 41.078C42.694 40.7907 42.6084 40.5394 42.3929 40.3239ZM47.0831 33.5705L44.6966 35.957L46.3124 37.5728L49.1132 34.772L50.1117 35.7705L46.068 39.8143L40.0355 33.7818L44.0709 29.7463L45.0777 30.7531L42.2852 33.5456L43.7229 34.9833L46.1094 32.5968L47.0831 33.5705ZM51.0854 32.7999L53.7246 30.1606L54.7231 31.1592L50.8409 35.0413L44.8084 29.0088L46.0514 27.7659L51.0854 32.7999ZM55.6843 28.2009L58.3236 25.5617L59.3221 26.5602L55.4399 30.4424L49.4074 24.4099L50.6504 23.1669L55.6843 28.2009ZM61.0539 19.5996L58.6675 21.9861L60.2833 23.602L63.0841 20.8011L64.0826 21.7997L60.0389 25.8434L54.0063 19.8109L58.0418 15.7754L59.0486 16.7822L56.2561 19.5748L57.6938 21.0124L60.0803 18.626L61.0539 19.5996ZM64.8367 16.6289L63.8465 17.6192L66.0548 19.8275L64.8118 21.0705L58.7793 15.0379L61.0208 12.7965C61.7334 12.0838 62.4419 11.693 63.1463 11.6239C63.8506 11.5549 64.4928 11.8104 65.0728 12.3904C65.4844 12.802 65.7385 13.2357 65.8352 13.6914C65.9319 14.1416 65.8808 14.6292 65.6819 15.154L69.4522 16.3141L69.5102 16.3721L68.1761 17.7062L64.8367 16.6289ZM62.8397 16.6124L63.8423 15.6097C64.1544 15.2976 64.3174 14.9772 64.3312 14.6485C64.3423 14.317 64.2083 14.0118 63.9293 13.7328C63.6448 13.4483 63.3396 13.3061 63.0137 13.3061C62.6905 13.3033 62.3618 13.4691 62.0276 13.8033L61.0291 14.8018L62.8397 16.6124Z" fill="white"/>
</svg>
