<svg width="507" height="348" viewBox="0 0 507 348" fill="none" xmlns="http://www.w3.org/2000/svg">
<g clip-path="url(#clip0)">
<path d="M459 347.065C459 347.065 559.974 184.771 451.383 75.196C390.359 13.618 273.938 39.801 235.645 78.581C197.352 117.361 70.568 56.453 32.069 131.263C-17.667 227.909 53.689 347.196 53.689 347.196L459 347.065Z" fill="#F7FCFF"/>
<path d="M23.27 345.196C16.8806 323.061 13.6487 300.135 13.67 277.096C13.666 141.996 123.189 32.475 258.289 32.475C393.389 32.475 502.912 141.996 502.912 277.096C502.932 300.033 499.727 322.86 493.392 344.905" stroke="#DBF0FF" stroke-width="2" stroke-miterlimit="10"/>
<path d="M69.274 344.773C61.5079 323.056 57.5498 300.161 57.574 277.097C57.578 166.248 147.439 76.386 258.289 76.386C369.139 76.386 459 166.248 459 277.096C459.026 300.311 455.017 323.354 447.152 345.196" stroke="#DBF0FF" stroke-width="2" stroke-miterlimit="10"/>
<path d="M104.08 113.2H419.48C423.723 113.2 427.793 114.886 430.794 117.886C433.794 120.887 435.48 124.956 435.48 129.2V344.51H88.08V129.2C88.08 124.956 89.7657 120.887 92.7663 117.886C95.7669 114.886 99.8365 113.2 104.08 113.2Z" fill="white" stroke="#80C9FF" stroke-width="4" stroke-miterlimit="10"/>
<path d="M418.653 147.859H103.916V344.804H418.653V147.859Z" fill="white" stroke="#80C9FF" stroke-width="4" stroke-miterlimit="10"/>
<path d="M418.653 168.506H103.916V344.804H418.653V168.506Z" fill="white" stroke="#80C9FF" stroke-width="4" stroke-miterlimit="10"/>
<path d="M136.595 170.215H105.649V343.09H136.595V170.215Z" fill="#DEF1FF"/>
<path d="M202.724 177.864H152.477V186.429H202.724V177.864Z" fill="#80C9FF"/>
<path d="M196.894 292.654H152.477V300.225H196.894V292.654Z" fill="#80C9FF"/>
<path d="M213.379 292.654H199.702V300.225H213.379V292.654Z" fill="#80C9FF"/>
<path d="M292.929 292.654H266.583V300.225H292.929V292.654Z" fill="#DEF1FF"/>
<path d="M262.754 292.654H217.208V300.225H262.754V292.654Z" fill="#80C9FF"/>
<path d="M187.676 304.054H152.477V311.625H187.676V304.054Z" fill="#80C9FF"/>
<path d="M165.145 315.454H152.477V323.025H165.145V315.454Z" fill="#DEF1FF"/>
<path d="M204.68 315.454H168.974V323.025H204.68V315.454Z" fill="#DEF1FF"/>
<path d="M227.527 304.054H191.433V311.625H227.527V304.054Z" fill="#80C9FF"/>
<path d="M235.645 190.54H152.477V199.165H235.645V190.54Z" fill="#80C9FF"/>
<path d="M286.469 190.54H241.655V199.165H286.469V190.54Z" fill="#80C9FF"/>
<path d="M235.645 216.774H152.477V225.399H235.645V216.774Z" fill="#80C9FF"/>
<path d="M183.954 229.73H152.477V238.355H183.954V229.73Z" fill="#80C9FF"/>
<path d="M202.724 229.73H188.342V238.355H202.724V229.73Z" fill="#DEF1FF"/>
<path d="M215.972 255.53H152.477V264.155H215.972V255.53Z" fill="#80C9FF"/>
<path d="M202.724 242.574H152.477V251.199H202.724V242.574Z" fill="#DEF1FF"/>
<path d="M235.645 242.574H205.901V251.199H235.645V242.574Z" fill="#DEF1FF"/>
<path d="M269.143 242.574H239.399V251.199H269.143V242.574Z" fill="#DEF1FF"/>
<path d="M217.276 268.486H152.477V277.111H217.276V268.486Z" fill="#DEF1FF"/>
<path d="M259.731 268.486H221.373V277.111H259.731V268.486Z" fill="#DEF1FF"/>
<path d="M492 345.196H505" stroke="#80C9FF" stroke-width="4" stroke-linecap="round" stroke-linejoin="round"/>
<path d="M18 345.196H476" stroke="#80C9FF" stroke-width="4" stroke-linecap="round" stroke-linejoin="round"/>
<path d="M2 345.196H11" stroke="#80C9FF" stroke-width="4" stroke-linecap="round" stroke-linejoin="round"/>
<path d="M198.195 83.4119L196.335 75.1949H137.339V83.4119V127.309V135.526H222.462V83.4119H198.195Z" fill="#DEF1FF"/>
<path d="M203.46 78.3559L201.599 70.1379H142.603V78.3559V122.252V130.47H227.726V78.3559H203.46Z" fill="white"/>
<path d="M228.569 131.312H141.76V69.296H202.272L204.133 77.513H228.569V131.312ZM143.445 129.626H226.883V79.196H202.789L200.929 70.978H143.445V129.626Z" fill="#288EEA"/>
<path d="M227.726 93.315H142.603C142.379 93.315 142.165 93.2262 142.007 93.0681C141.849 92.91 141.76 92.6956 141.76 92.472C141.76 92.2485 141.849 92.034 142.007 91.8759C142.165 91.7178 142.379 91.629 142.603 91.629H227.726C227.95 91.629 228.164 91.7178 228.322 91.8759C228.48 92.034 228.569 92.2485 228.569 92.472C228.569 92.6956 228.48 92.91 228.322 93.0681C228.164 93.2262 227.95 93.315 227.726 93.315V93.315Z" fill="#288EEA"/>
<path d="M185.165 89.312H163.814V95.774H185.165V89.312Z" fill="white"/>
<path d="M186.007 96.617H162.972V88.469H186.007V96.617ZM164.657 94.931H184.321V90.155H164.657V94.931Z" fill="#288EEA"/>
<path d="M274.136 39.802C278.183 39.802 281.464 36.5211 281.464 32.474C281.464 28.4269 278.183 25.146 274.136 25.146C270.089 25.146 266.808 28.4269 266.808 32.474C266.808 36.5211 270.089 39.802 274.136 39.802Z" fill="#D4E8FB" stroke="#298EEA" stroke-width="4" stroke-miterlimit="10" stroke-linecap="round"/>
<path d="M101.501 32.475C104.048 32.475 106.113 30.4101 106.113 27.863C106.113 25.3158 104.048 23.251 101.501 23.251C98.9539 23.251 96.889 25.3158 96.889 27.863C96.889 30.4101 98.9539 32.475 101.501 32.475Z" fill="#DEF1FF"/>
<path d="M44.89 116.094C46.4889 116.094 47.785 114.798 47.785 113.199C47.785 111.6 46.4889 110.304 44.89 110.304C43.2911 110.304 41.995 111.6 41.995 113.199C41.995 114.798 43.2911 116.094 44.89 116.094Z" fill="#298EEA"/>
<path d="M302.295 19.091C303.894 19.091 305.19 17.7949 305.19 16.196C305.19 14.5972 303.894 13.301 302.295 13.301C300.696 13.301 299.4 14.5972 299.4 16.196C299.4 17.7949 300.696 19.091 302.295 19.091Z" fill="#DEF1FF"/>
<path d="M459.002 127.052C456.512 127.052 454.078 127.79 452.007 129.173C449.937 130.556 448.323 132.522 447.37 134.822C446.417 137.122 446.167 139.654 446.653 142.096C447.138 144.538 448.337 146.781 450.098 148.542C451.858 150.303 454.101 151.502 456.543 151.988C458.985 152.474 461.517 152.225 463.817 151.272C466.118 150.319 468.084 148.706 469.467 146.635C470.851 144.565 471.589 142.131 471.589 139.641C471.586 136.303 470.259 133.103 467.899 130.743C465.539 128.383 462.34 127.055 459.002 127.052V127.052ZM459.002 147.261C457.495 147.261 456.022 146.814 454.768 145.977C453.515 145.14 452.538 143.95 451.961 142.558C451.384 141.165 451.233 139.633 451.527 138.155C451.821 136.677 452.547 135.319 453.612 134.253C454.678 133.187 456.036 132.462 457.514 132.167C458.992 131.873 460.524 132.024 461.917 132.601C463.309 133.178 464.499 134.154 465.337 135.407C466.174 136.661 466.621 138.134 466.621 139.641C466.619 141.661 465.815 143.598 464.387 145.026C462.959 146.455 461.022 147.258 459.002 147.261V147.261Z" fill="#DDDDDD"/>
<path d="M466.579 140.445C466.423 141.909 465.847 143.297 464.919 144.44C463.991 145.584 462.752 146.434 461.351 146.887C459.95 147.341 458.448 147.379 457.026 146.997C455.604 146.614 454.323 145.828 453.339 144.733C452.354 143.638 451.708 142.281 451.479 140.827C451.249 139.372 451.446 137.883 452.046 136.538C452.645 135.193 453.622 134.051 454.857 133.249C456.093 132.448 457.534 132.021 459.006 132.022V127.046C456.547 127.041 454.14 127.756 452.083 129.102C450.025 130.449 448.406 132.368 447.426 134.623C446.446 136.878 446.147 139.371 446.566 141.794C446.985 144.217 448.104 146.464 449.785 148.259C451.466 150.054 453.635 151.317 456.026 151.894C458.416 152.471 460.923 152.336 463.238 151.505C465.552 150.675 467.573 149.185 469.051 147.22C470.529 145.255 471.4 142.9 471.556 140.446L466.579 140.445Z" fill="#288EEA"/>
<path fill-rule="evenodd" clip-rule="evenodd" d="M481.345 30.565C481.345 30.8021 481.251 31.0295 481.083 31.1972C480.916 31.3648 480.688 31.459 480.451 31.459V31.459C480.334 31.4592 480.217 31.4361 480.109 31.3913C480 31.3464 479.901 31.2806 479.818 31.1975C479.735 31.1145 479.669 31.0159 479.624 30.9074C479.579 30.7988 479.556 30.6825 479.556 30.565V26.221C479.556 26.1035 479.579 25.9872 479.624 25.8787C479.669 25.7701 479.735 25.6715 479.818 25.5885C479.901 25.5055 480 25.4397 480.109 25.3948C480.217 25.3499 480.334 25.3269 480.451 25.327V25.327C480.688 25.327 480.916 25.4212 481.083 25.5889C481.251 25.7565 481.345 25.9839 481.345 26.221V30.565Z" fill="#80C9FF"/>
<path fill-rule="evenodd" clip-rule="evenodd" d="M481.345 39.041C481.345 39.2781 481.251 39.5055 481.083 39.6732C480.916 39.8408 480.688 39.935 480.451 39.935V39.935C480.334 39.9351 480.217 39.9121 480.109 39.8672C480 39.8224 479.901 39.7565 479.818 39.6735C479.735 39.5905 479.669 39.4919 479.624 39.3834C479.579 39.2748 479.556 39.1585 479.556 39.041V34.696C479.556 34.5785 479.579 34.4622 479.624 34.3537C479.669 34.2451 479.735 34.1465 479.818 34.0635C479.901 33.9805 480 33.9146 480.109 33.8698C480.217 33.8249 480.334 33.8019 480.451 33.802V33.802C480.688 33.802 480.916 33.8962 481.083 34.0639C481.251 34.2315 481.345 34.4589 481.345 34.696V39.041Z" fill="#80C9FF"/>
<path fill-rule="evenodd" clip-rule="evenodd" d="M482.515 33.376C482.278 33.376 482.051 33.2818 481.883 33.1142C481.715 32.9465 481.621 32.7191 481.621 32.482V32.482C481.621 32.2449 481.715 32.0175 481.883 31.8499C482.051 31.6822 482.278 31.588 482.515 31.588H486.859C487.096 31.588 487.323 31.6822 487.491 31.8499C487.659 32.0175 487.753 32.2449 487.753 32.482V32.482C487.753 32.7191 487.659 32.9465 487.491 33.1142C487.323 33.2818 487.096 33.376 486.859 33.376H482.515Z" fill="#80C9FF"/>
<path fill-rule="evenodd" clip-rule="evenodd" d="M474.04 33.376C473.803 33.376 473.575 33.2818 473.408 33.1142C473.24 32.9465 473.146 32.7191 473.146 32.482V32.482C473.146 32.2449 473.24 32.0175 473.408 31.8499C473.575 31.6822 473.803 31.588 474.04 31.588H478.384C478.621 31.588 478.848 31.6822 479.016 31.8499C479.184 32.0175 479.278 32.2449 479.278 32.482V32.482C479.278 32.7191 479.184 32.9465 479.016 33.1142C478.848 33.2818 478.621 33.376 478.384 33.376H474.04Z" fill="#80C9FF"/>
<path fill-rule="evenodd" clip-rule="evenodd" d="M127.903 34.852C127.903 34.9649 127.881 35.0768 127.838 35.1811C127.794 35.2854 127.731 35.3802 127.651 35.4601C127.571 35.54 127.476 35.6033 127.372 35.6465C127.268 35.6897 127.156 35.712 127.043 35.712C126.93 35.7121 126.818 35.69 126.714 35.6468C126.609 35.6037 126.514 35.5403 126.434 35.4605C126.354 35.3806 126.291 35.2857 126.248 35.1813C126.204 35.0769 126.182 34.965 126.182 34.852V30.673C126.182 30.56 126.204 30.4481 126.248 30.3436C126.291 30.2392 126.354 30.1444 126.434 30.0645C126.514 29.9847 126.609 29.9213 126.714 29.8782C126.818 29.835 126.93 29.8129 127.043 29.813V29.813C127.156 29.813 127.268 29.8352 127.372 29.8785C127.476 29.9217 127.571 29.985 127.651 30.0649C127.731 30.1447 127.794 30.2395 127.838 30.3439C127.881 30.4482 127.903 30.5601 127.903 30.673V34.852Z" fill="#80C9FF"/>
<path fill-rule="evenodd" clip-rule="evenodd" d="M127.903 43.0059C127.903 43.1189 127.881 43.2307 127.838 43.335C127.794 43.4394 127.731 43.5342 127.651 43.614C127.571 43.6939 127.476 43.7572 127.372 43.8005C127.268 43.8437 127.156 43.8659 127.043 43.8659V43.8659C126.93 43.866 126.818 43.8439 126.714 43.8007C126.609 43.7576 126.514 43.6943 126.434 43.6144C126.354 43.5345 126.291 43.4397 126.248 43.3353C126.204 43.2309 126.182 43.1189 126.182 43.0059V38.8269C126.182 38.7139 126.204 38.602 126.248 38.4976C126.291 38.3932 126.354 38.2983 126.434 38.2185C126.514 38.1386 126.609 38.0753 126.714 38.0321C126.818 37.9889 126.93 37.9668 127.043 37.9669V37.9669C127.156 37.9669 127.268 37.9892 127.372 38.0324C127.476 38.0756 127.571 38.1389 127.651 38.2188C127.731 38.2987 127.794 38.3935 127.838 38.4978C127.881 38.6022 127.903 38.714 127.903 38.8269V43.0059Z" fill="#80C9FF"/>
<path fill-rule="evenodd" clip-rule="evenodd" d="M129.03 37.5559C128.802 37.5559 128.583 37.4653 128.422 37.3041C128.261 37.1428 128.17 36.924 128.17 36.6959V36.6959C128.17 36.4679 128.261 36.2491 128.422 36.0878C128.583 35.9265 128.802 35.8359 129.03 35.8359H133.209C133.437 35.8359 133.656 35.9265 133.817 36.0878C133.978 36.2491 134.069 36.4679 134.069 36.6959V36.6959C134.069 36.924 133.978 37.1428 133.817 37.3041C133.656 37.4653 133.437 37.5559 133.209 37.5559H129.03Z" fill="#80C9FF"/>
<path fill-rule="evenodd" clip-rule="evenodd" d="M120.876 37.5559C120.648 37.5559 120.429 37.4653 120.268 37.3041C120.107 37.1428 120.016 36.924 120.016 36.6959V36.6959C120.016 36.4679 120.107 36.2491 120.268 36.0878C120.429 35.9265 120.648 35.8359 120.876 35.8359H125.055C125.283 35.8359 125.502 35.9265 125.663 36.0878C125.824 36.2491 125.915 36.4679 125.915 36.6959C125.915 36.924 125.824 37.1428 125.663 37.3041C125.502 37.4653 125.283 37.5559 125.055 37.5559H120.876Z" fill="#80C9FF"/>
<path fill-rule="evenodd" clip-rule="evenodd" d="M24.734 5.03998C24.734 5.26806 24.6434 5.48681 24.4821 5.64809C24.3208 5.80937 24.1021 5.89998 23.874 5.89998V5.89998C23.6459 5.89998 23.4272 5.80937 23.2659 5.64809C23.1046 5.48681 23.014 5.26806 23.014 5.03998V0.860976C23.014 0.63289 23.1046 0.414146 23.2659 0.252865C23.4272 0.0915835 23.6459 0.000976562 23.874 0.000976562V0.000976562C24.1021 0.000976562 24.3208 0.0915835 24.4821 0.252865C24.6434 0.414146 24.734 0.63289 24.734 0.860976V5.03998Z" fill="#EDEDED"/>
<path fill-rule="evenodd" clip-rule="evenodd" d="M24.734 13.1959C24.734 13.424 24.6434 13.6428 24.4821 13.804C24.3208 13.9653 24.1021 14.0559 23.874 14.0559V14.0559C23.6459 14.0559 23.4272 13.9653 23.2659 13.804C23.1046 13.6428 23.014 13.424 23.014 13.1959V9.01393C23.014 8.78585 23.1046 8.5671 23.2659 8.40582C23.4272 8.24454 23.6459 8.15393 23.874 8.15393V8.15393C24.1021 8.15393 24.3208 8.24454 24.4821 8.40582C24.6434 8.5671 24.734 8.78585 24.734 9.01393V13.1959Z" fill="#EDEDED"/>
<path fill-rule="evenodd" clip-rule="evenodd" d="M25.86 7.74393C25.6319 7.74393 25.4132 7.65332 25.2519 7.49204C25.0906 7.33076 25 7.11201 25 6.88393C25 6.65584 25.0906 6.4371 25.2519 6.27581C25.4132 6.11453 25.6319 6.02393 25.86 6.02393H30.039C30.2671 6.02393 30.4858 6.11453 30.6471 6.27581C30.8084 6.4371 30.899 6.65584 30.899 6.88393V6.88393C30.899 7.11201 30.8084 7.33076 30.6471 7.49204C30.4858 7.65332 30.2671 7.74393 30.039 7.74393H25.86Z" fill="#EDEDED"/>
<path fill-rule="evenodd" clip-rule="evenodd" d="M17.706 7.74393C17.4779 7.74393 17.2592 7.65332 17.0979 7.49204C16.9366 7.33076 16.846 7.11201 16.846 6.88393C16.846 6.65584 16.9366 6.4371 17.0979 6.27581C17.2592 6.11453 17.4779 6.02393 17.706 6.02393H21.889C22.1171 6.02393 22.3358 6.11453 22.4971 6.27581C22.6584 6.4371 22.749 6.65584 22.749 6.88393C22.749 7.11201 22.6584 7.33076 22.4971 7.49204C22.3358 7.65332 22.1171 7.74393 21.889 7.74393H17.706Z" fill="#EDEDED"/>
<path fill-rule="evenodd" clip-rule="evenodd" d="M47.735 192.866C47.735 192.979 47.7128 193.091 47.6695 193.195C47.6263 193.299 47.563 193.394 47.4831 193.474C47.4033 193.554 47.3084 193.617 47.2041 193.66C47.0998 193.704 46.9879 193.726 46.875 193.726V193.726C46.7621 193.726 46.6502 193.704 46.5459 193.66C46.4416 193.617 46.3467 193.554 46.2669 193.474C46.187 193.394 46.1237 193.299 46.0805 193.195C46.0372 193.091 46.015 192.979 46.015 192.866V188.687C46.015 188.574 46.0372 188.462 46.0805 188.358C46.1237 188.253 46.187 188.159 46.2669 188.079C46.3467 187.999 46.4416 187.936 46.5459 187.892C46.6502 187.849 46.7621 187.827 46.875 187.827V187.827C46.9879 187.827 47.0998 187.849 47.2041 187.892C47.3084 187.936 47.4033 187.999 47.4831 188.079C47.563 188.159 47.6263 188.253 47.6695 188.358C47.7128 188.462 47.735 188.574 47.735 188.687V192.866Z" fill="#EDEDED"/>
<path fill-rule="evenodd" clip-rule="evenodd" d="M47.735 201.019C47.735 201.132 47.7128 201.244 47.6695 201.348C47.6263 201.452 47.563 201.547 47.4831 201.627C47.4033 201.707 47.3084 201.77 47.2041 201.814C47.0998 201.857 46.9879 201.879 46.875 201.879V201.879C46.7621 201.879 46.6502 201.857 46.5459 201.814C46.4416 201.77 46.3467 201.707 46.2669 201.627C46.187 201.547 46.1237 201.452 46.0805 201.348C46.0372 201.244 46.015 201.132 46.015 201.019V196.84C46.015 196.612 46.1056 196.393 46.2669 196.232C46.4282 196.071 46.6469 195.98 46.875 195.98V195.98C47.1031 195.98 47.3218 196.071 47.4831 196.232C47.6444 196.393 47.735 196.612 47.735 196.84V201.019Z" fill="#EDEDED"/>
<path fill-rule="evenodd" clip-rule="evenodd" d="M48.862 195.57C48.6339 195.57 48.4152 195.479 48.2539 195.318C48.0926 195.157 48.002 194.938 48.002 194.71V194.71C48.002 194.482 48.0926 194.263 48.2539 194.102C48.4152 193.941 48.6339 193.85 48.862 193.85H53.041C53.1539 193.85 53.2658 193.872 53.3701 193.915C53.4744 193.959 53.5693 194.022 53.6491 194.102C53.729 194.182 53.7923 194.277 53.8355 194.381C53.8788 194.485 53.901 194.597 53.901 194.71V194.71C53.901 194.823 53.8788 194.935 53.8355 195.039C53.7923 195.143 53.729 195.238 53.6491 195.318C53.5693 195.398 53.4744 195.461 53.3701 195.505C53.2658 195.548 53.1539 195.57 53.041 195.57H48.862Z" fill="#EDEDED"/>
<path fill-rule="evenodd" clip-rule="evenodd" d="M40.708 195.57C40.4799 195.57 40.2612 195.479 40.0999 195.318C39.9386 195.157 39.848 194.938 39.848 194.71V194.71C39.848 194.482 39.9386 194.263 40.0999 194.102C40.2612 193.941 40.4799 193.85 40.708 193.85H44.889C45.1171 193.85 45.3358 193.941 45.4971 194.102C45.6584 194.263 45.749 194.482 45.749 194.71V194.71C45.749 194.938 45.6584 195.157 45.4971 195.318C45.3358 195.479 45.1171 195.57 44.889 195.57H40.708Z" fill="#EDEDED"/>
<path d="M410.178 32.63H340.016C339.566 32.63 339.202 32.9944 339.202 33.444V85.763C339.202 86.2126 339.566 86.577 340.016 86.577H410.178C410.628 86.577 410.992 86.2126 410.992 85.763V33.444C410.992 32.9944 410.628 32.63 410.178 32.63Z" fill="white"/>
<path d="M409.989 33.631V85.578H340.199V33.631H409.989ZM410.175 31.631H340.016C339.535 31.6323 339.074 31.824 338.734 32.1641C338.394 32.5042 338.202 32.965 338.201 33.446V85.763C338.203 86.2438 338.394 86.7044 338.734 87.0443C339.074 87.3842 339.535 87.5757 340.016 87.577H410.177C410.658 87.5754 411.118 87.3838 411.458 87.044C411.798 86.7041 411.989 86.2436 411.991 85.763V33.445C411.99 32.9642 411.798 32.5035 411.458 32.1634C411.118 31.8234 410.658 31.6316 410.177 31.63L410.175 31.631Z" fill="#298EEA"/>
<path d="M340 44.6959H411" stroke="#298EEA" stroke-miterlimit="10"/>
<path d="M404.515 41.005C405.642 41.005 406.556 40.0912 406.556 38.964C406.556 37.8368 405.642 36.923 404.515 36.923C403.388 36.923 402.474 37.8368 402.474 38.964C402.474 40.0912 403.388 41.005 404.515 41.005Z" fill="#C9C9C9"/>
<path d="M396.349 41.005C397.476 41.005 398.39 40.0912 398.39 38.964C398.39 37.8368 397.476 36.923 396.349 36.923C395.222 36.923 394.308 37.8368 394.308 38.964C394.308 40.0912 395.222 41.005 396.349 41.005Z" fill="#C9C9C9"/>
<path d="M388.184 41.005C389.311 41.005 390.225 40.0912 390.225 38.964C390.225 37.8368 389.311 36.923 388.184 36.923C387.057 36.923 386.143 37.8368 386.143 38.964C386.143 40.0912 387.057 41.005 388.184 41.005Z" fill="#C9C9C9"/>
<path d="M364.411 74.404C364.272 74.404 364.135 74.372 364.01 74.3106C363.886 74.2493 363.777 74.1601 363.692 74.05L356.25 64.38L364.103 54.18C364.176 54.0855 364.266 54.0063 364.369 53.9468C364.473 53.8873 364.587 53.8487 364.705 53.8332C364.823 53.8178 364.943 53.8257 365.058 53.8567C365.173 53.8876 365.281 53.9409 365.375 54.0135C365.47 54.0861 365.549 54.1767 365.609 54.2799C365.668 54.3832 365.707 54.4971 365.722 54.6153C365.738 54.7335 365.73 54.8535 365.699 54.9686C365.668 55.0837 365.615 55.1915 365.542 55.286L358.542 64.386L365.134 72.95C365.237 73.0843 365.301 73.2448 365.318 73.4133C365.334 73.5819 365.304 73.7518 365.229 73.9037C365.154 74.0557 365.038 74.1837 364.894 74.2731C364.75 74.3626 364.584 74.41 364.415 74.41L364.411 74.404Z" fill="#298EEA"/>
<path d="M384.789 74.404C384.928 74.404 385.065 74.372 385.19 74.3106C385.314 74.2493 385.423 74.1601 385.508 74.05L392.95 64.38L385.097 54.18C384.95 53.9892 384.734 53.8645 384.495 53.8332C384.257 53.802 384.015 53.8669 383.825 54.0135C383.634 54.1602 383.509 54.3767 383.478 54.6153C383.447 54.8539 383.511 55.0952 383.658 55.286L390.658 64.386L384.066 72.95C383.963 73.0843 383.899 73.2448 383.882 73.4133C383.866 73.5819 383.896 73.7518 383.971 73.9037C384.046 74.0557 384.162 74.1837 384.306 74.2731C384.45 74.3626 384.616 74.41 384.785 74.41L384.789 74.404Z" fill="#298EEA"/>
<path d="M369.849 75.8589C369.723 75.8592 369.597 75.8326 369.482 75.7809C369.373 75.7329 369.274 75.6637 369.191 75.5772C369.108 75.4908 369.044 75.3888 369.001 75.2773C368.958 75.1657 368.937 75.0467 368.941 74.9272C368.944 74.8077 368.971 74.69 369.02 74.5809L378.699 52.7329C378.796 52.5129 378.977 52.3406 379.201 52.2539C379.426 52.1671 379.676 52.1731 379.896 52.2704C380.116 52.3678 380.288 52.5485 380.375 52.7729C380.461 52.9973 380.455 53.2469 380.358 53.4669L370.679 75.3179C370.608 75.4787 370.492 75.6154 370.344 75.7115C370.197 75.8075 370.025 75.8587 369.849 75.8589V75.8589Z" fill="#298EEA"/>
<path d="M97.08 186.79C92.406 186.79 87.8369 185.404 83.9507 182.807C80.0644 180.21 77.0354 176.52 75.2468 172.201C73.4582 167.883 72.9902 163.131 73.9022 158.547C74.8141 153.963 77.0649 149.752 80.37 146.447C83.6751 143.142 87.886 140.892 92.4702 139.98C97.0545 139.068 101.806 139.536 106.124 141.325C110.442 143.114 114.133 146.143 116.73 150.03C119.326 153.916 120.712 158.485 120.712 163.159C120.705 169.424 118.213 175.431 113.782 179.861C109.352 184.291 103.345 186.783 97.08 186.79V186.79Z" fill="white"/>
<path d="M97.08 140.527C101.556 140.527 105.932 141.854 109.654 144.341C113.375 146.828 116.276 150.363 117.989 154.498C119.702 158.634 120.15 163.184 119.277 167.574C118.404 171.964 116.248 175.997 113.083 179.162C109.918 182.327 105.885 184.483 101.495 185.356C97.1051 186.229 92.5546 185.781 88.4191 184.068C84.2837 182.355 80.749 179.454 78.2622 175.733C75.7754 172.011 74.448 167.635 74.448 163.159C74.4546 157.159 76.8412 151.406 81.0841 147.163C85.327 142.92 91.0797 140.534 97.08 140.527V140.527ZM97.08 138.527C92.2083 138.527 87.4459 139.972 83.3952 142.678C79.3445 145.385 76.1873 149.232 74.323 153.733C72.4587 158.234 71.9709 163.186 72.9213 167.964C73.8717 172.743 76.2177 177.132 79.6625 180.576C83.1074 184.021 87.4964 186.367 92.2745 187.318C97.0527 188.268 102.005 187.78 106.506 185.916C111.007 184.052 114.854 180.895 117.561 176.844C120.267 172.793 121.712 168.031 121.712 163.159C121.712 156.626 119.117 150.361 114.497 145.742C109.878 141.122 103.613 138.527 97.08 138.527Z" fill="#298EEA"/>
<path d="M97.08 193.12C113.628 193.12 127.042 179.705 127.042 163.158C127.042 146.61 113.628 133.196 97.08 133.196C80.5324 133.196 67.118 146.61 67.118 163.158C67.118 179.705 80.5324 193.12 97.08 193.12Z" stroke="#DBF0FF" stroke-width="2" stroke-miterlimit="10"/>
<path d="M84.9357 160.333V168.583C84.9357 170.005 84.2908 170.716 83.0011 170.716C82.7231 170.716 82.4656 170.675 82.2287 170.593V169.582C82.3745 169.618 82.5659 169.636 82.8029 169.636C83.0854 169.636 83.2996 169.559 83.4455 169.404C83.5958 169.253 83.671 168.989 83.671 168.611V160.333H84.9357ZM83.5412 158.371C83.5412 158.17 83.6027 157.999 83.7257 157.858C83.8533 157.712 84.0379 157.639 84.2794 157.639C84.5255 157.639 84.7124 157.71 84.84 157.851C84.9676 157.992 85.0314 158.166 85.0314 158.371C85.0314 158.576 84.9676 158.747 84.84 158.883C84.7124 159.02 84.5255 159.088 84.2794 159.088C84.0333 159.088 83.8488 159.02 83.7257 158.883C83.6027 158.747 83.5412 158.576 83.5412 158.371ZM91.2863 165.767C91.2863 165.425 91.1564 165.161 90.8966 164.974C90.6414 164.783 90.1925 164.619 89.5499 164.482C88.9119 164.345 88.4038 164.181 88.0255 163.99C87.6518 163.798 87.3738 163.57 87.1916 163.306C87.0138 163.042 86.9249 162.727 86.9249 162.363C86.9249 161.757 87.1802 161.244 87.6906 160.825C88.2055 160.405 88.8618 160.196 89.6593 160.196C90.4979 160.196 91.1769 160.412 91.6964 160.845C92.2205 161.278 92.4826 161.832 92.4826 162.506H91.2111C91.2111 162.16 91.063 161.861 90.7667 161.611C90.4751 161.36 90.1059 161.235 89.6593 161.235C89.199 161.235 88.839 161.335 88.5792 161.536C88.3195 161.736 88.1896 161.998 88.1896 162.322C88.1896 162.627 88.3104 162.857 88.5519 163.012C88.7934 163.167 89.2287 163.315 89.8576 163.457C90.491 163.598 91.0037 163.766 91.3957 163.962C91.7876 164.158 92.077 164.395 92.2638 164.673C92.4552 164.947 92.5509 165.282 92.5509 165.678C92.5509 166.339 92.2866 166.87 91.758 167.271C91.2293 167.667 90.5434 167.866 89.7003 167.866C89.1079 167.866 88.5838 167.761 88.1281 167.551C87.6723 167.342 87.3146 167.05 87.0548 166.676C86.7996 166.298 86.672 165.89 86.672 165.453H87.9367C87.9595 165.876 88.1281 166.214 88.4425 166.464C88.7615 166.71 89.1808 166.833 89.7003 166.833C90.1789 166.833 90.5617 166.738 90.8488 166.546C91.1404 166.35 91.2863 166.091 91.2863 165.767ZM93.8634 163.962C93.8634 163.238 94.0047 162.586 94.2873 162.007C94.5744 161.429 94.9708 160.982 95.4767 160.667C95.9871 160.353 96.5682 160.196 97.2199 160.196C98.227 160.196 99.0405 160.544 99.6603 161.242C100.285 161.939 100.597 162.866 100.597 164.024V164.113C100.597 164.833 100.458 165.48 100.18 166.054C99.9064 166.624 99.5122 167.068 98.9972 167.387C98.4868 167.706 97.8989 167.866 97.2335 167.866C96.2309 167.866 95.4175 167.517 94.7931 166.82C94.1733 166.123 93.8634 165.2 93.8634 164.051V163.962ZM95.1349 164.113C95.1349 164.933 95.324 165.592 95.7023 166.088C96.0851 166.585 96.5955 166.833 97.2335 166.833C97.8761 166.833 98.3865 166.583 98.7648 166.082C99.143 165.576 99.3322 164.869 99.3322 163.962C99.3322 163.151 99.1385 162.495 98.7511 161.994C98.3683 161.488 97.8579 161.235 97.2199 161.235C96.5955 161.235 96.0919 161.483 95.7091 161.98C95.3263 162.477 95.1349 163.188 95.1349 164.113ZM103.379 160.333L103.42 161.262C103.985 160.551 104.723 160.196 105.635 160.196C107.198 160.196 107.986 161.078 108 162.841V167.729H106.735V162.834C106.731 162.301 106.608 161.907 106.366 161.652C106.129 161.397 105.758 161.269 105.252 161.269C104.842 161.269 104.482 161.378 104.172 161.597C103.862 161.816 103.621 162.103 103.447 162.458V167.729H102.183V160.333H103.379Z" fill="#80C9FF"/>
<path d="M84.9357 160.333V168.583C84.9357 170.005 84.2908 170.716 83.0011 170.716C82.7231 170.716 82.4656 170.675 82.2287 170.593V169.582C82.3745 169.618 82.5659 169.636 82.8029 169.636C83.0854 169.636 83.2996 169.559 83.4455 169.404C83.5958 169.253 83.671 168.989 83.671 168.611V160.333H84.9357ZM83.5412 158.371C83.5412 158.17 83.6027 157.999 83.7257 157.858C83.8533 157.712 84.0379 157.639 84.2794 157.639C84.5255 157.639 84.7124 157.71 84.84 157.851C84.9676 157.992 85.0314 158.166 85.0314 158.371C85.0314 158.576 84.9676 158.747 84.84 158.883C84.7124 159.02 84.5255 159.088 84.2794 159.088C84.0333 159.088 83.8488 159.02 83.7257 158.883C83.6027 158.747 83.5412 158.576 83.5412 158.371ZM91.2863 165.767C91.2863 165.425 91.1564 165.161 90.8966 164.974C90.6414 164.783 90.1925 164.619 89.5499 164.482C88.9119 164.345 88.4038 164.181 88.0255 163.99C87.6518 163.798 87.3738 163.57 87.1916 163.306C87.0138 163.042 86.9249 162.727 86.9249 162.363C86.9249 161.757 87.1802 161.244 87.6906 160.825C88.2055 160.405 88.8618 160.196 89.6593 160.196C90.4979 160.196 91.1769 160.412 91.6964 160.845C92.2205 161.278 92.4826 161.832 92.4826 162.506H91.2111C91.2111 162.16 91.063 161.861 90.7667 161.611C90.4751 161.36 90.1059 161.235 89.6593 161.235C89.199 161.235 88.839 161.335 88.5792 161.536C88.3195 161.736 88.1896 161.998 88.1896 162.322C88.1896 162.627 88.3104 162.857 88.5519 163.012C88.7934 163.167 89.2287 163.315 89.8576 163.457C90.491 163.598 91.0037 163.766 91.3957 163.962C91.7876 164.158 92.077 164.395 92.2638 164.673C92.4552 164.947 92.5509 165.282 92.5509 165.678C92.5509 166.339 92.2866 166.87 91.758 167.271C91.2293 167.667 90.5434 167.866 89.7003 167.866C89.1079 167.866 88.5838 167.761 88.1281 167.551C87.6723 167.342 87.3146 167.05 87.0548 166.676C86.7996 166.298 86.672 165.89 86.672 165.453H87.9367C87.9595 165.876 88.1281 166.214 88.4425 166.464C88.7615 166.71 89.1808 166.833 89.7003 166.833C90.1789 166.833 90.5617 166.738 90.8488 166.546C91.1404 166.35 91.2863 166.091 91.2863 165.767ZM93.8634 163.962C93.8634 163.238 94.0047 162.586 94.2873 162.007C94.5744 161.429 94.9708 160.982 95.4767 160.667C95.9871 160.353 96.5682 160.196 97.2199 160.196C98.227 160.196 99.0405 160.544 99.6603 161.242C100.285 161.939 100.597 162.866 100.597 164.024V164.113C100.597 164.833 100.458 165.48 100.18 166.054C99.9064 166.624 99.5122 167.068 98.9972 167.387C98.4868 167.706 97.8989 167.866 97.2335 167.866C96.2309 167.866 95.4175 167.517 94.7931 166.82C94.1733 166.123 93.8634 165.2 93.8634 164.051V163.962ZM95.1349 164.113C95.1349 164.933 95.324 165.592 95.7023 166.088C96.0851 166.585 96.5955 166.833 97.2335 166.833C97.8761 166.833 98.3865 166.583 98.7648 166.082C99.143 165.576 99.3322 164.869 99.3322 163.962C99.3322 163.151 99.1385 162.495 98.7511 161.994C98.3683 161.488 97.8579 161.235 97.2199 161.235C96.5955 161.235 96.0919 161.483 95.7091 161.98C95.3263 162.477 95.1349 163.188 95.1349 164.113ZM103.379 160.333L103.42 161.262C103.985 160.551 104.723 160.196 105.635 160.196C107.198 160.196 107.986 161.078 108 162.841V167.729H106.735V162.834C106.731 162.301 106.608 161.907 106.366 161.652C106.129 161.397 105.758 161.269 105.252 161.269C104.842 161.269 104.482 161.378 104.172 161.597C103.862 161.816 103.621 162.103 103.447 162.458V167.729H102.183V160.333H103.379Z" fill="#80C9FF"/>
<path d="M444.615 219.485C458.219 219.485 469.247 208.457 469.247 194.853C469.247 181.249 458.219 170.221 444.615 170.221C431.011 170.221 419.983 181.249 419.983 194.853C419.983 208.457 431.011 219.485 444.615 219.485Z" fill="#298EEA"/>
<path d="M444.615 165.891C450.343 165.891 455.943 167.59 460.705 170.772C465.468 173.954 469.18 178.478 471.372 183.77C473.564 189.062 474.138 194.885 473.021 200.503C471.903 206.121 469.145 211.282 465.094 215.332C461.044 219.383 455.883 222.141 450.265 223.258C444.647 224.376 438.824 223.802 433.532 221.61C428.24 219.418 423.716 215.706 420.534 210.943C417.352 206.181 415.653 200.581 415.653 194.853C415.663 187.175 418.718 179.814 424.147 174.385C429.576 168.956 436.937 165.901 444.615 165.891V165.891ZM444.615 164.891C438.689 164.891 432.896 166.648 427.969 169.94C423.042 173.233 419.201 177.912 416.934 183.387C414.666 188.862 414.073 194.886 415.229 200.698C416.385 206.51 419.238 211.849 423.429 216.039C427.619 220.23 432.958 223.083 438.77 224.239C444.582 225.395 450.606 224.802 456.081 222.534C461.556 220.267 466.235 216.426 469.528 211.499C472.82 206.572 474.577 200.779 474.577 194.853C474.577 186.907 471.42 179.286 465.801 173.667C460.182 168.048 452.561 164.891 444.615 164.891V164.891Z" fill="#298EEA"/>
<path d="M441.626 193.132C441.626 194.74 441.258 196.036 440.522 197.019C439.787 198.002 438.791 198.493 437.534 198.493C436.252 198.493 435.243 198.086 434.507 197.273V202.36H432.7V187.732H434.351L434.438 188.903C435.174 187.992 436.196 187.536 437.505 187.536C438.774 187.536 439.777 188.015 440.513 188.972C441.255 189.929 441.626 191.26 441.626 192.966V193.132ZM439.819 192.927C439.819 191.735 439.565 190.795 439.058 190.105C438.55 189.415 437.853 189.069 436.968 189.069C435.874 189.069 435.054 189.554 434.507 190.525V195.573C435.047 196.537 435.874 197.019 436.987 197.019C437.853 197.019 438.54 196.677 439.048 195.993C439.562 195.303 439.819 194.281 439.819 192.927ZM445.737 189.011C446.538 188.028 447.58 187.536 448.862 187.536C451.095 187.536 452.222 188.796 452.241 191.316V198.298H450.435V191.306C450.428 190.544 450.252 189.981 449.907 189.616C449.569 189.252 449.038 189.069 448.315 189.069C447.729 189.069 447.215 189.226 446.772 189.538C446.33 189.851 445.985 190.261 445.737 190.769V198.298H443.931V183.298H445.737V189.011ZM461.47 198.298C461.366 198.09 461.281 197.719 461.216 197.185C460.376 198.057 459.373 198.493 458.208 198.493C457.166 198.493 456.31 198.2 455.64 197.614C454.976 197.022 454.644 196.273 454.644 195.368C454.644 194.268 455.06 193.415 455.894 192.81C456.733 192.198 457.912 191.892 459.429 191.892H461.187V191.062C461.187 190.43 460.998 189.929 460.62 189.558C460.243 189.18 459.686 188.991 458.95 188.991C458.306 188.991 457.765 189.154 457.329 189.48C456.893 189.805 456.675 190.199 456.675 190.661H454.858C454.858 190.134 455.044 189.626 455.415 189.138C455.793 188.643 456.3 188.252 456.938 187.966C457.583 187.679 458.289 187.536 459.058 187.536C460.275 187.536 461.229 187.842 461.919 188.454C462.609 189.06 462.967 189.896 462.993 190.964V195.827C462.993 196.797 463.117 197.569 463.364 198.142V198.298H461.47ZM458.472 196.921C459.038 196.921 459.575 196.775 460.083 196.482C460.591 196.189 460.959 195.808 461.187 195.339V193.171H459.771C457.557 193.171 456.45 193.819 456.45 195.114C456.45 195.681 456.639 196.123 457.017 196.443C457.394 196.762 457.879 196.921 458.472 196.921ZM470.933 189.353C470.659 189.307 470.363 189.284 470.044 189.284C468.859 189.284 468.055 189.789 467.632 190.798V198.298H465.825V187.732H467.583L467.612 188.952C468.205 188.008 469.045 187.536 470.132 187.536C470.483 187.536 470.75 187.582 470.933 187.673V189.353Z" fill="white"/>
<path d="M441.626 193.132C441.626 194.74 441.258 196.036 440.522 197.019C439.787 198.002 438.791 198.493 437.534 198.493C436.252 198.493 435.243 198.086 434.507 197.273V202.36H432.7V187.732H434.351L434.438 188.903C435.174 187.992 436.196 187.536 437.505 187.536C438.774 187.536 439.777 188.015 440.513 188.972C441.255 189.929 441.626 191.26 441.626 192.966V193.132ZM439.819 192.927C439.819 191.735 439.565 190.795 439.058 190.105C438.55 189.415 437.853 189.069 436.968 189.069C435.874 189.069 435.054 189.554 434.507 190.525V195.573C435.047 196.537 435.874 197.019 436.987 197.019C437.853 197.019 438.54 196.677 439.048 195.993C439.562 195.303 439.819 194.281 439.819 192.927ZM445.737 189.011C446.538 188.028 447.58 187.536 448.862 187.536C451.095 187.536 452.222 188.796 452.241 191.316V198.298H450.435V191.306C450.428 190.544 450.252 189.981 449.907 189.616C449.569 189.252 449.038 189.069 448.315 189.069C447.729 189.069 447.215 189.226 446.772 189.538C446.33 189.851 445.985 190.261 445.737 190.769V198.298H443.931V183.298H445.737V189.011ZM461.47 198.298C461.366 198.09 461.281 197.719 461.216 197.185C460.376 198.057 459.373 198.493 458.208 198.493C457.166 198.493 456.31 198.2 455.64 197.614C454.976 197.022 454.644 196.273 454.644 195.368C454.644 194.268 455.06 193.415 455.894 192.81C456.733 192.198 457.912 191.892 459.429 191.892H461.187V191.062C461.187 190.43 460.998 189.929 460.62 189.558C460.243 189.18 459.686 188.991 458.95 188.991C458.306 188.991 457.765 189.154 457.329 189.48C456.893 189.805 456.675 190.199 456.675 190.661H454.858C454.858 190.134 455.044 189.626 455.415 189.138C455.793 188.643 456.3 188.252 456.938 187.966C457.583 187.679 458.289 187.536 459.058 187.536C460.275 187.536 461.229 187.842 461.919 188.454C462.609 189.06 462.967 189.896 462.993 190.964V195.827C462.993 196.797 463.117 197.569 463.364 198.142V198.298H461.47ZM458.472 196.921C459.038 196.921 459.575 196.775 460.083 196.482C460.591 196.189 460.959 195.808 461.187 195.339V193.171H459.771C457.557 193.171 456.45 193.819 456.45 195.114C456.45 195.681 456.639 196.123 457.017 196.443C457.394 196.762 457.879 196.921 458.472 196.921ZM470.933 189.353C470.659 189.307 470.363 189.284 470.044 189.284C468.859 189.284 468.055 189.789 467.632 190.798V198.298H465.825V187.732H467.583L467.612 188.952C468.205 188.008 469.045 187.536 470.132 187.536C470.483 187.536 470.75 187.582 470.933 187.673V189.353Z" fill="white"/>
<path d="M67.117 89.953C60.2835 89.953 53.6034 87.9266 47.9215 84.1301C42.2396 80.3336 37.8111 74.9374 35.196 68.6241C32.581 62.3107 31.8967 55.3636 33.2299 48.6614C34.563 41.9592 37.8537 35.8028 42.6858 30.9707C47.5178 26.1387 53.6742 22.848 60.3764 21.5149C67.0787 20.1817 74.0257 20.8659 80.3391 23.481C86.6525 26.0961 92.0486 30.5246 95.8451 36.2065C99.6416 41.8883 101.668 48.5684 101.668 55.402C101.658 64.5623 98.0142 73.3445 91.5368 79.8218C85.0595 86.2991 76.2773 89.9427 67.117 89.953V89.953Z" fill="white"/>
<path d="M67.118 21.8519C73.7538 21.8519 80.2406 23.8197 85.758 27.5064C91.2755 31.193 95.5758 36.433 98.1152 42.5638C100.655 48.6945 101.319 55.4405 100.024 61.9488C98.7296 68.4571 95.5341 74.4353 90.8418 79.1274C86.1495 83.8196 80.1712 87.0149 73.6629 88.3094C67.1545 89.6038 60.4085 88.9393 54.2779 86.3997C48.1473 83.8602 42.9074 79.5597 39.2209 74.0421C35.5344 68.5246 33.5668 62.0377 33.567 55.4019C33.5773 46.5069 37.1155 37.9792 43.4053 31.6895C49.6952 25.3999 58.223 21.862 67.118 21.8519V21.8519ZM67.118 19.8519C60.0867 19.8519 53.2133 21.937 47.3669 25.8434C41.5206 29.7497 36.9639 35.3021 34.2732 41.7982C31.5824 48.2942 30.8784 55.4424 32.2501 62.3386C33.6218 69.2348 37.0078 75.5694 41.9797 80.5413C46.9515 85.5132 53.2861 88.8991 60.1823 90.2708C67.0786 91.6426 74.2267 90.9385 80.7228 88.2478C87.2189 85.557 92.7712 81.0003 96.6776 75.154C100.584 69.3077 102.669 62.4343 102.669 55.4029C102.669 45.9742 98.9235 36.9317 92.2564 30.2646C85.5892 23.5975 76.5467 19.8519 67.118 19.8519V19.8519Z" fill="#298EEA"/>
<path d="M67.118 98.647C91.0015 98.647 110.363 79.2855 110.363 55.402C110.363 31.5184 91.0015 12.157 67.118 12.157C43.2344 12.157 23.873 31.5184 23.873 55.402C23.873 79.2855 43.2344 98.647 67.118 98.647Z" stroke="#DBF0FF" stroke-miterlimit="10"/>
<path d="M62.7867 58.4283C62.7867 58.1354 62.6754 57.9088 62.4527 57.7487C62.234 57.5846 61.8492 57.444 61.2984 57.3268C60.7516 57.2096 60.316 57.069 59.9918 56.9049C59.6715 56.7408 59.4332 56.5455 59.277 56.319C59.1246 56.0924 59.0484 55.8229 59.0484 55.5104C59.0484 54.9908 59.2672 54.5514 59.7047 54.192C60.1461 53.8326 60.7086 53.653 61.3922 53.653C62.1109 53.653 62.693 53.8385 63.1383 54.2096C63.5875 54.5807 63.8121 55.0553 63.8121 55.6334H62.7223C62.7223 55.3365 62.5953 55.0807 62.3414 54.8658C62.0914 54.651 61.775 54.5436 61.3922 54.5436C60.9977 54.5436 60.6891 54.6295 60.4664 54.8014C60.2438 54.9733 60.1324 55.1979 60.1324 55.4752C60.1324 55.7369 60.2359 55.9342 60.443 56.067C60.65 56.1998 61.023 56.3268 61.5621 56.4479C62.1051 56.569 62.5445 56.7135 62.8805 56.8815C63.2164 57.0494 63.4645 57.2526 63.6246 57.4908C63.7887 57.7252 63.8707 58.0123 63.8707 58.3522C63.8707 58.9186 63.6441 59.3737 63.191 59.7174C62.7379 60.0573 62.15 60.2272 61.4273 60.2272C60.9195 60.2272 60.4703 60.1373 60.0797 59.9576C59.6891 59.778 59.3824 59.528 59.1598 59.2076C58.941 58.8834 58.8316 58.5338 58.8316 58.1588H59.9156C59.9352 58.5221 60.0797 58.8112 60.3492 59.026C60.6227 59.2369 60.982 59.3424 61.4273 59.3424C61.8375 59.3424 62.1656 59.2604 62.4117 59.0963C62.6617 58.9283 62.7867 58.7057 62.7867 58.4283ZM66.7535 52.235V53.7701H67.9371V54.608H66.7535V58.5397C66.7535 58.7936 66.8063 58.985 66.9117 59.1139C67.0172 59.2389 67.1969 59.3014 67.4508 59.3014C67.5758 59.3014 67.7477 59.278 67.9664 59.2311V60.11C67.6813 60.1881 67.4039 60.2272 67.1344 60.2272C66.65 60.2272 66.2848 60.0807 66.0387 59.7877C65.7926 59.4948 65.6695 59.0787 65.6695 58.5397V54.608H64.5152V53.7701H65.6695V52.235H66.7535ZM72.273 54.7428C72.109 54.7155 71.9313 54.7018 71.7398 54.7018C71.0289 54.7018 70.5465 55.0045 70.2926 55.61V60.11H69.2086V53.7701H70.2633L70.2809 54.5026C70.6363 53.9362 71.1402 53.653 71.7926 53.653C72.0035 53.653 72.1637 53.6803 72.273 53.735V54.7428ZM74.4527 60.11H73.3688V53.7701H74.4527V60.11ZM73.2809 52.0885C73.2809 51.9127 73.3336 51.7643 73.4391 51.6432C73.5484 51.5221 73.7086 51.4615 73.9195 51.4615C74.1305 51.4615 74.2906 51.5221 74.4 51.6432C74.5094 51.7643 74.5641 51.9127 74.5641 52.0885C74.5641 52.2643 74.5094 52.4108 74.4 52.528C74.2906 52.6451 74.1305 52.7037 73.9195 52.7037C73.7086 52.7037 73.5484 52.6451 73.4391 52.528C73.3336 52.4108 73.2809 52.2643 73.2809 52.0885ZM77.2184 53.7701L77.2535 54.567C77.7379 53.9576 78.3707 53.653 79.152 53.653C80.4918 53.653 81.1676 54.4088 81.1793 55.9205V60.11H80.0953V55.9147C80.0914 55.4576 79.9859 55.1198 79.7789 54.901C79.5758 54.6823 79.2574 54.5729 78.8238 54.5729C78.4723 54.5729 78.1637 54.6666 77.898 54.8541C77.6324 55.0416 77.4254 55.2877 77.277 55.5924V60.11H76.193V53.7701H77.2184ZM82.5563 56.8873C82.5563 55.899 82.7848 55.1139 83.2418 54.5319C83.6988 53.9459 84.3043 53.653 85.0582 53.653C85.8316 53.653 86.4352 53.9264 86.8688 54.4733L86.9215 53.7701H87.9117V59.9576C87.9117 60.778 87.6676 61.4244 87.1793 61.8971C86.6949 62.3698 86.0426 62.6061 85.2223 62.6061C84.7652 62.6061 84.318 62.5084 83.8805 62.3131C83.443 62.1178 83.109 61.8502 82.8785 61.5104L83.441 60.86C83.9059 61.4342 84.4742 61.7213 85.1461 61.7213C85.6734 61.7213 86.0836 61.5729 86.3766 61.276C86.6734 60.9791 86.8219 60.5612 86.8219 60.0221V59.4772C86.3883 59.9772 85.7965 60.2272 85.0465 60.2272C84.3043 60.2272 83.7027 59.9283 83.2418 59.3307C82.7848 58.733 82.5563 57.9186 82.5563 56.8873ZM83.6461 57.0104C83.6461 57.7252 83.7926 58.2877 84.0855 58.6979C84.3785 59.1041 84.7887 59.3073 85.316 59.3073C85.9996 59.3073 86.5016 58.9967 86.8219 58.3756V55.4811C86.4898 54.8756 85.9918 54.5729 85.3277 54.5729C84.8004 54.5729 84.3883 54.778 84.0914 55.1881C83.7945 55.5983 83.6461 56.2057 83.6461 57.0104Z" fill="#80C9FF"/>
<path d="M62.7867 58.4283C62.7867 58.1354 62.6754 57.9088 62.4527 57.7487C62.234 57.5846 61.8492 57.444 61.2984 57.3268C60.7516 57.2096 60.316 57.069 59.9918 56.9049C59.6715 56.7408 59.4332 56.5455 59.277 56.319C59.1246 56.0924 59.0484 55.8229 59.0484 55.5104C59.0484 54.9908 59.2672 54.5514 59.7047 54.192C60.1461 53.8326 60.7086 53.653 61.3922 53.653C62.1109 53.653 62.693 53.8385 63.1383 54.2096C63.5875 54.5807 63.8121 55.0553 63.8121 55.6334H62.7223C62.7223 55.3365 62.5953 55.0807 62.3414 54.8658C62.0914 54.651 61.775 54.5436 61.3922 54.5436C60.9977 54.5436 60.6891 54.6295 60.4664 54.8014C60.2438 54.9733 60.1324 55.1979 60.1324 55.4752C60.1324 55.7369 60.2359 55.9342 60.443 56.067C60.65 56.1998 61.023 56.3268 61.5621 56.4479C62.1051 56.569 62.5445 56.7135 62.8805 56.8815C63.2164 57.0494 63.4645 57.2526 63.6246 57.4908C63.7887 57.7252 63.8707 58.0123 63.8707 58.3522C63.8707 58.9186 63.6441 59.3737 63.191 59.7174C62.7379 60.0573 62.15 60.2272 61.4273 60.2272C60.9195 60.2272 60.4703 60.1373 60.0797 59.9576C59.6891 59.778 59.3824 59.528 59.1598 59.2076C58.941 58.8834 58.8316 58.5338 58.8316 58.1588H59.9156C59.9352 58.5221 60.0797 58.8112 60.3492 59.026C60.6227 59.2369 60.982 59.3424 61.4273 59.3424C61.8375 59.3424 62.1656 59.2604 62.4117 59.0963C62.6617 58.9283 62.7867 58.7057 62.7867 58.4283ZM66.7535 52.235V53.7701H67.9371V54.608H66.7535V58.5397C66.7535 58.7936 66.8063 58.985 66.9117 59.1139C67.0172 59.2389 67.1969 59.3014 67.4508 59.3014C67.5758 59.3014 67.7477 59.278 67.9664 59.2311V60.11C67.6813 60.1881 67.4039 60.2272 67.1344 60.2272C66.65 60.2272 66.2848 60.0807 66.0387 59.7877C65.7926 59.4948 65.6695 59.0787 65.6695 58.5397V54.608H64.5152V53.7701H65.6695V52.235H66.7535ZM72.273 54.7428C72.109 54.7155 71.9313 54.7018 71.7398 54.7018C71.0289 54.7018 70.5465 55.0045 70.2926 55.61V60.11H69.2086V53.7701H70.2633L70.2809 54.5026C70.6363 53.9362 71.1402 53.653 71.7926 53.653C72.0035 53.653 72.1637 53.6803 72.273 53.735V54.7428ZM74.4527 60.11H73.3688V53.7701H74.4527V60.11ZM73.2809 52.0885C73.2809 51.9127 73.3336 51.7643 73.4391 51.6432C73.5484 51.5221 73.7086 51.4615 73.9195 51.4615C74.1305 51.4615 74.2906 51.5221 74.4 51.6432C74.5094 51.7643 74.5641 51.9127 74.5641 52.0885C74.5641 52.2643 74.5094 52.4108 74.4 52.528C74.2906 52.6451 74.1305 52.7037 73.9195 52.7037C73.7086 52.7037 73.5484 52.6451 73.4391 52.528C73.3336 52.4108 73.2809 52.2643 73.2809 52.0885ZM77.2184 53.7701L77.2535 54.567C77.7379 53.9576 78.3707 53.653 79.152 53.653C80.4918 53.653 81.1676 54.4088 81.1793 55.9205V60.11H80.0953V55.9147C80.0914 55.4576 79.9859 55.1198 79.7789 54.901C79.5758 54.6823 79.2574 54.5729 78.8238 54.5729C78.4723 54.5729 78.1637 54.6666 77.898 54.8541C77.6324 55.0416 77.4254 55.2877 77.277 55.5924V60.11H76.193V53.7701H77.2184ZM82.5563 56.8873C82.5563 55.899 82.7848 55.1139 83.2418 54.5319C83.6988 53.9459 84.3043 53.653 85.0582 53.653C85.8316 53.653 86.4352 53.9264 86.8688 54.4733L86.9215 53.7701H87.9117V59.9576C87.9117 60.778 87.6676 61.4244 87.1793 61.8971C86.6949 62.3698 86.0426 62.6061 85.2223 62.6061C84.7652 62.6061 84.318 62.5084 83.8805 62.3131C83.443 62.1178 83.109 61.8502 82.8785 61.5104L83.441 60.86C83.9059 61.4342 84.4742 61.7213 85.1461 61.7213C85.6734 61.7213 86.0836 61.5729 86.3766 61.276C86.6734 60.9791 86.8219 60.5612 86.8219 60.0221V59.4772C86.3883 59.9772 85.7965 60.2272 85.0465 60.2272C84.3043 60.2272 83.7027 59.9283 83.2418 59.3307C82.7848 58.733 82.5563 57.9186 82.5563 56.8873ZM83.6461 57.0104C83.6461 57.7252 83.7926 58.2877 84.0855 58.6979C84.3785 59.1041 84.7887 59.3073 85.316 59.3073C85.9996 59.3073 86.5016 58.9967 86.8219 58.3756V55.4811C86.4898 54.8756 85.9918 54.5729 85.3277 54.5729C84.8004 54.5729 84.3883 54.778 84.0914 55.1881C83.7945 55.5983 83.6461 56.2057 83.6461 57.0104Z" fill="#80C9FF"/>
<path d="M89.883 209.832H51.315V266.877H97.673V218.422L89.883 209.832Z" fill="white" stroke="#298EEA" stroke-width="2" stroke-miterlimit="10" stroke-linecap="round"/>
<path d="M76.082 217.029H56.582V219.696H76.082V217.029Z" fill="#DEF1FF"/>
<path d="M76.082 226.576H56.582V229.243H76.082V226.576Z" fill="#DEF1FF"/>
<path d="M86.728 236.122H56.582V238.789H86.728V236.122Z" fill="#DEF1FF"/>
<path d="M86.728 245.669H56.582V248.336H86.728V245.669Z" fill="#DEF1FF"/>
<path d="M341.31 277.688C340.38 277.928 339.518 278.15 338.656 278.374C333.656 279.674 328.659 280.974 323.665 282.274C320.321 283.138 316.971 283.982 313.623 284.836C312.99 285.005 312.342 285.112 311.688 285.153C310.728 285.245 309.763 285.059 308.906 284.617C308.049 284.175 307.337 283.497 306.855 282.662C306.657 282.335 306.481 281.995 306.326 281.646C302.409 273.186 298.495 264.725 294.582 256.263C289.987 246.31 285.395 236.354 280.808 226.396C280.122 224.908 279.457 223.41 278.785 221.915C278.46 221.222 278.233 220.486 278.112 219.73C278.059 219.388 278.07 219.038 278.145 218.7C278.194 218.448 278.302 218.212 278.461 218.011C278.62 217.809 278.825 217.649 279.058 217.543C279.32 217.417 279.598 217.326 279.884 217.273C280.295 217.201 280.716 217.181 281.132 217.143C281.821 217.08 282.509 217.018 283.198 216.959C283.688 216.916 284.177 216.872 284.667 216.835C285.302 216.787 285.939 216.75 286.574 216.699C287.227 216.646 287.874 216.579 288.531 216.52C289.002 216.478 289.474 216.437 289.946 216.401C290.581 216.353 291.218 216.315 291.853 216.265C292.524 216.212 293.195 216.148 293.866 216.089C294.356 216.046 294.845 216.002 295.335 215.965C295.97 215.917 296.607 215.879 297.242 215.829C297.95 215.773 298.656 215.708 299.364 215.649C299.908 215.603 300.452 215.557 300.997 215.518C301.687 215.469 302.378 215.433 303.068 215.381C303.758 215.329 304.445 215.237 305.136 215.209C306.155 215.167 307.169 215.018 308.191 215.069C308.499 215.084 308.806 215.122 309.112 215.163C309.439 215.203 309.754 215.312 310.037 215.48C310.32 215.649 310.564 215.875 310.755 216.144C311.155 216.685 311.549 217.236 311.896 217.812C313.71 220.823 315.515 223.84 317.312 226.861C323.045 236.442 328.779 246.024 334.512 255.605C337.512 260.622 340.512 265.641 343.512 270.66C343.651 270.893 343.799 271.121 343.923 271.32C343.985 271.341 344.002 271.348 344.023 271.352C344.04 271.359 344.058 271.363 344.076 271.362C357.496 268.152 370.915 264.941 384.334 261.73C384.368 261.718 384.4 261.7 384.427 261.676C384.443 261.659 384.457 261.641 384.468 261.621C384.498 261.445 384.358 261.333 384.268 261.205C383.515 260.13 382.76 259.058 382.003 257.987L371.311 242.856C371.071 242.556 370.883 242.218 370.755 241.856C370.694 241.673 370.689 241.477 370.741 241.291C370.794 241.106 370.9 240.94 371.047 240.816C371.304 240.581 371.617 240.415 371.956 240.334C372.43 240.207 372.909 240.096 373.392 240.012C374.878 239.752 376.367 239.504 377.855 239.258C379.272 239.023 380.691 238.799 382.108 238.558C383.308 238.358 384.508 238.141 385.708 237.942C386.928 237.742 388.15 237.551 389.37 237.353C390.357 237.193 391.344 237.032 392.33 236.865C392.963 236.743 393.619 236.864 394.168 237.203C394.54 237.431 394.886 237.7 395.199 238.003C395.612 238.413 396.002 238.847 396.365 239.303C399.868 243.641 403.368 247.982 406.865 252.325C408.365 254.183 409.875 256.031 411.376 257.886C411.515 258.054 411.635 258.237 411.732 258.432C411.788 258.522 411.825 258.622 411.841 258.727C411.857 258.831 411.852 258.938 411.826 259.04C411.801 259.143 411.755 259.239 411.691 259.324C411.627 259.408 411.547 259.479 411.456 259.532C411.201 259.705 410.922 259.839 410.628 259.932C410.092 260.105 409.544 260.238 408.999 260.383C403.536 261.84 398.072 263.298 392.609 264.755C392.471 264.792 392.338 264.849 392.197 264.9C392.234 265.103 392.336 265.289 392.487 265.431C393.356 266.601 394.233 267.765 395.102 268.931C399.395 274.707 403.687 280.484 407.978 286.261C408.249 286.627 408.521 286.993 408.764 287.378C408.914 287.627 409.039 287.89 409.137 288.163C409.213 288.352 409.226 288.56 409.173 288.756C409.12 288.953 409.005 289.127 408.845 289.252C408.642 289.435 408.416 289.588 408.171 289.709C407.699 289.944 407.215 290.155 406.721 290.341C402.536 291.872 398.353 293.41 394.158 294.913C384.825 298.257 375.489 301.59 366.15 304.913C364.686 305.464 363.193 305.936 361.679 306.328C361.203 306.449 360.719 306.537 360.231 306.589C359.61 306.645 358.986 306.512 358.441 306.208C358.09 306.013 357.768 305.77 357.485 305.486C356.953 304.96 356.488 304.37 356.102 303.729C355.326 302.453 354.541 301.182 353.802 299.884C351.246 295.387 348.701 290.884 346.168 286.375C344.633 283.644 343.126 280.898 341.606 278.159C341.523 278.025 341.424 277.875 341.31 277.688ZM338.3 272.281C338.281 272.179 338.252 272.078 338.215 271.981C338.127 271.781 338.029 271.586 337.92 271.397C334.828 266.054 331.734 260.711 328.639 255.369L316.729 234.803C313.729 229.618 310.729 224.432 307.729 219.245C307.652 219.07 307.52 218.926 307.353 218.834C307.185 218.742 306.993 218.708 306.804 218.736C306.224 218.791 305.643 218.828 305.062 218.876C304.609 218.914 304.156 218.956 303.702 218.998C303.086 219.055 302.47 219.116 301.854 219.169C301.254 219.221 300.654 219.262 300.054 219.312C299.601 219.35 299.148 219.395 298.695 219.437C298.095 219.493 297.495 219.553 296.902 219.605C296.309 219.657 295.702 219.699 295.102 219.748C294.667 219.784 294.232 219.822 293.797 219.863C293.217 219.919 292.639 219.985 292.059 220.036C291.459 220.088 290.859 220.124 290.259 220.173C289.751 220.215 289.244 220.265 288.736 220.312C288.12 220.369 287.504 220.43 286.888 220.481C286.272 220.532 285.654 220.573 285.037 220.623C284.892 220.636 284.748 220.658 284.605 220.689C284.39 220.733 284.275 220.847 284.292 221.064C284.308 221.281 284.356 221.494 284.433 221.697C284.544 221.985 284.692 222.258 284.827 222.537C290.885 235.018 296.943 247.5 303.001 259.981C305.884 265.928 308.758 271.88 311.623 277.836C311.734 278.065 311.831 278.301 311.94 278.536C311.98 278.669 312.071 278.781 312.192 278.849C312.313 278.917 312.456 278.935 312.59 278.9C312.662 278.889 312.734 278.874 312.804 278.855C313.637 278.665 314.471 278.48 315.304 278.283C319.054 277.394 322.803 276.503 326.552 275.61C330.177 274.747 333.802 273.882 337.426 273.015C337.604 272.978 337.779 272.926 337.948 272.86C338.064 272.817 338.161 272.737 338.225 272.631C338.289 272.526 338.315 272.402 338.3 272.28V272.281ZM346.88 276.272C346.918 276.46 346.996 276.637 347.11 276.791C350.569 282.74 354.03 288.689 357.491 294.638C358.188 295.834 358.896 297.023 359.617 298.204C359.856 298.591 360.129 298.955 360.434 299.293C360.616 299.525 360.872 299.688 361.16 299.754C361.447 299.821 361.749 299.787 362.014 299.658C362.483 299.463 362.969 299.307 363.451 299.143L397.901 287.45C398.968 287.088 400.034 286.724 401.101 286.358C401.307 286.29 401.508 286.207 401.701 286.108C401.79 286.082 401.871 286.034 401.937 285.969C402.003 285.904 402.052 285.823 402.079 285.734C402.105 285.645 402.11 285.551 402.091 285.46C402.072 285.369 402.03 285.285 401.97 285.214C401.917 285.118 401.859 285.026 401.797 284.936C401.663 284.736 401.529 284.546 401.389 284.355C399.317 281.516 397.245 278.677 395.172 275.838C392.858 272.657 390.548 269.473 388.242 266.286C388.169 266.18 388.088 266.08 388 265.986C387.901 265.866 387.769 265.777 387.62 265.731C387.471 265.684 387.312 265.681 387.162 265.723C386.847 265.809 386.532 265.897 386.216 265.979C384.423 266.449 382.629 266.918 380.836 267.387C376.14 268.608 371.443 269.829 366.746 271.048C362.489 272.156 358.233 273.266 353.978 274.377C351.727 274.964 349.475 275.549 347.224 276.133C347.107 276.172 346.992 276.218 346.88 276.271V276.272ZM388.83 260.657C388.951 260.639 389.023 260.634 389.092 260.617C390.732 260.211 392.371 259.8 394.011 259.397C397.063 258.646 400.116 257.897 403.169 257.15C403.663 257.029 404.159 256.914 404.648 256.775C404.875 256.712 405.093 256.619 405.296 256.498C405.36 256.471 405.417 256.429 405.462 256.376C405.507 256.322 405.537 256.258 405.551 256.19C405.566 256.122 405.563 256.051 405.543 255.984C405.524 255.917 405.489 255.856 405.44 255.806C405.35 255.67 405.24 255.545 405.14 255.416C401.908 251.309 398.675 247.202 395.44 243.095C394.922 242.437 394.411 241.773 393.899 241.11C393.726 240.861 393.482 240.671 393.198 240.564C392.915 240.457 392.606 240.438 392.312 240.51C390.92 240.777 389.526 241.033 388.133 241.29C386.221 241.643 384.31 241.998 382.396 242.341C380.84 242.62 379.281 242.882 377.723 243.151C377.523 243.185 377.323 243.212 377.133 243.251C376.619 243.362 376.495 243.621 376.749 244.074C376.86 244.262 376.982 244.444 377.114 244.618C380.904 249.813 384.692 255.005 388.479 260.196C388.589 260.346 388.699 260.487 388.83 260.656V260.657Z" fill="#298EEA"/>
</g>
<defs>
<clipPath id="clip0">
<rect width="507" height="347.196" fill="white"/>
</clipPath>
</defs>
</svg>
